u2194_ 10 - 60.ufo
<glyph name="dollar" format="1">
  <advance width="821"/>
  <unicode hex="0024"/>
  <outline>
    <contour>
      <point x="310" y="459" type="line"/>
      <point x="303" y="459" type="line"/>
      <point x="296" y="459" type="line"/>
      <point x="290" y="459" type="line"/>
      <point x="283" y="459" type="line"/>
      <point x="276" y="459" type="line"/>
      <point x="270" y="460" type="line"/>
      <point x="263" y="460" type="line"/>
      <point x="257" y="461" type="line"/>
      <point x="251" y="462" type="line"/>
      <point x="245" y="463" type="line"/>
      <point x="239" y="464" type="line"/>
      <point x="233" y="465" type="line"/>
      <point x="228" y="467" type="line"/>
      <point x="223" y="469" type="line"/>
      <point x="218" y="471" type="line"/>
      <point x="214" y="473" type="line"/>
      <point x="210" y="476" type="line"/>
      <point x="206" y="479" type="line"/>
      <point x="203" y="482" type="line"/>
      <point x="199" y="485" type="line"/>
      <point x="199" y="486" type="line"/>
      <point x="193" y="493" type="line"/>
      <point x="190" y="498" type="line"/>
      <point x="187" y="503" type="line"/>
      <point x="184" y="509" type="line"/>
      <point x="181" y="517" type="line"/>
      <point x="179" y="525" type="line"/>
      <point x="176" y="534" type="line"/>
      <point x="174" y="544" type="line"/>
      <point x="172" y="556" type="line"/>
      <point x="171" y="569" type="line"/>
      <point x="170" y="583" type="line"/>
      <point x="170" y="598" type="line"/>
      <point x="170" y="606" type="line"/>
      <point x="170" y="612" type="line"/>
      <point x="170" y="619" type="line"/>
      <point x="170" y="626" type="line"/>
      <point x="170" y="632" type="line"/>
      <point x="171" y="639" type="line"/>
      <point x="171" y="645" type="line"/>
      <point x="172" y="652" type="line"/>
      <point x="173" y="658" type="line"/>
      <point x="174" y="664" type="line"/>
      <point x="175" y="670" type="line"/>
      <point x="176" y="675" type="line"/>
      <point x="178" y="681" type="line"/>
      <point x="180" y="686" type="line"/>
      <point x="182" y="690" type="line"/>
      <point x="184" y="695" type="line"/>
      <point x="187" y="699" type="line"/>
      <point x="190" y="702" type="line"/>
      <point x="193" y="706" type="line"/>
      <point x="196" y="710" type="line"/>
      <point x="197" y="710" type="line"/>
      <point x="204" y="716" type="line"/>
      <point x="209" y="719" type="line"/>
      <point x="214" y="722" type="line"/>
      <point x="221" y="725" type="line"/>
      <point x="228" y="728" type="line"/>
      <point x="236" y="730" type="line"/>
      <point x="245" y="733" type="line"/>
      <point x="255" y="735" type="line"/>
      <point x="267" y="737" type="line"/>
      <point x="280" y="738" type="line"/>
      <point x="294" y="739" type="line"/>
      <point x="309" y="739" type="line"/>
      <point x="318" y="739" type="line"/>
      <point x="351" y="739" type="line"/>
      <point x="351" y="459" type="line"/>
    </contour>
    <contour>
      <point x="511" y="339" type="line"/>
      <point x="518" y="339" type="line"/>
      <point x="524" y="339" type="line"/>
      <point x="531" y="339" type="line"/>
      <point x="537" y="339" type="line"/>
      <point x="544" y="339" type="line"/>
      <point x="550" y="338" type="line"/>
      <point x="556" y="338" type="line"/>
      <point x="562" y="337" type="line"/>
      <point x="568" y="337" type="line"/>
      <point x="574" y="336" type="line"/>
      <point x="580" y="335" type="line"/>
      <point x="585" y="333" type="line"/>
      <point x="590" y="332" type="line"/>
      <point x="595" y="330" type="line"/>
      <point x="599" y="328" type="line"/>
      <point x="603" y="327" type="line"/>
      <point x="607" y="324" type="line"/>
      <point x="611" y="322" type="line"/>
      <point x="615" y="319" type="line"/>
      <point x="618" y="316" type="line"/>
      <point x="625" y="310" type="line"/>
      <point x="625" y="309" type="line"/>
      <point x="629" y="304" type="line"/>
      <point x="632" y="299" type="line"/>
      <point x="635" y="292" type="line"/>
      <point x="639" y="285" type="line"/>
      <point x="641" y="277" type="line"/>
      <point x="644" y="267" type="line"/>
      <point x="646" y="257" type="line"/>
      <point x="648" y="245" type="line"/>
      <point x="650" y="232" type="line"/>
      <point x="651" y="218" type="line"/>
      <point x="651" y="201" type="line"/>
      <point x="651" y="195" type="line"/>
      <point x="651" y="188" type="line"/>
      <point x="651" y="182" type="line"/>
      <point x="651" y="175" type="line"/>
      <point x="651" y="169" type="line"/>
      <point x="650" y="163" type="line"/>
      <point x="650" y="156" type="line"/>
      <point x="649" y="150" type="line"/>
      <point x="648" y="144" type="line"/>
      <point x="647" y="138" type="line"/>
      <point x="646" y="133" type="line"/>
      <point x="645" y="127" type="line"/>
      <point x="643" y="122" type="line"/>
      <point x="642" y="117" type="line"/>
      <point x="640" y="112" type="line"/>
      <point x="638" y="108" type="line"/>
      <point x="635" y="104" type="line"/>
      <point x="633" y="100" type="line"/>
      <point x="630" y="96" type="line"/>
      <point x="627" y="92" type="line"/>
      <point x="620" y="86" type="line"/>
      <point x="619" y="85" type="line"/>
      <point x="614" y="82" type="line"/>
      <point x="609" y="78" type="line"/>
      <point x="602" y="75" type="line"/>
      <point x="595" y="72" type="line"/>
      <point x="587" y="69" type="line"/>
      <point x="577" y="66" type="line"/>
      <point x="567" y="64" type="line"/>
      <point x="555" y="62" type="line"/>
      <point x="542" y="60" type="line"/>
      <point x="528" y="59" type="line"/>
      <point x="511" y="59" type="line"/>
      <point x="471" y="59" type="line"/>
      <point x="471" y="339" type="line"/>
    </contour>
    <contour>
      <point x="310" y="-61" type="line" smooth="yes"/>
      <point x="511" y="-61" type="line"/>
      <point x="530" y="-61" type="line"/>
      <point x="549" y="-59" type="line"/>
      <point x="568" y="-58" type="line"/>
      <point x="586" y="-55" type="line"/>
      <point x="602" y="-51" type="line"/>
      <point x="618" y="-47" type="line"/>
      <point x="634" y="-42" type="line"/>
      <point x="648" y="-36" type="line"/>
      <point x="662" y="-29" type="line"/>
      <point x="675" y="-22" type="line"/>
      <point x="687" y="-14" type="line"/>
      <point x="698" y="-5" type="line" smooth="yes"/>
      <point x="699" y="-4"/>
      <point x="701" y="-3"/>
      <point x="702" y="-2" type="curve" smooth="yes"/>
      <point x="709" y="5" type="line"/>
      <point x="718" y="15" type="line"/>
      <point x="727" y="25" type="line"/>
      <point x="734" y="36" type="line"/>
      <point x="741" y="47" type="line"/>
      <point x="747" y="58" type="line"/>
      <point x="752" y="69" type="line"/>
      <point x="756" y="81" type="line"/>
      <point x="759" y="92" type="line"/>
      <point x="762" y="102" type="line"/>
      <point x="765" y="113" type="line"/>
      <point x="767" y="124" type="line"/>
      <point x="768" y="134" type="line"/>
      <point x="769" y="144" type="line"/>
      <point x="770" y="153" type="line"/>
      <point x="770" y="162" type="line"/>
      <point x="771" y="171" type="line"/>
      <point x="771" y="179" type="line"/>
      <point x="771" y="187" type="line"/>
      <point x="771" y="194" type="line"/>
      <point x="771" y="201" type="line"/>
      <point x="771" y="220" type="line"/>
      <point x="770" y="239" type="line"/>
      <point x="768" y="258" type="line"/>
      <point x="765" y="275" type="line"/>
      <point x="761" y="292" type="line"/>
      <point x="757" y="308" type="line"/>
      <point x="752" y="323" type="line"/>
      <point x="746" y="338" type="line"/>
      <point x="740" y="351" type="line"/>
      <point x="733" y="364" type="line"/>
      <point x="724" y="376" type="line"/>
      <point x="716" y="388" type="line" smooth="yes"/>
      <point x="715" y="389"/>
      <point x="714" y="390"/>
      <point x="713" y="391" type="curve" smooth="yes"/>
      <point x="706" y="398" type="line"/>
      <point x="696" y="407" type="line"/>
      <point x="686" y="416" type="line"/>
      <point x="675" y="423" type="line"/>
      <point x="664" y="430" type="line"/>
      <point x="653" y="436" type="line"/>
      <point x="642" y="441" type="line"/>
      <point x="631" y="445" type="line"/>
      <point x="620" y="448" type="line"/>
      <point x="609" y="451" type="line"/>
      <point x="598" y="453" type="line"/>
      <point x="588" y="455" type="line"/>
      <point x="578" y="456" type="line"/>
      <point x="568" y="457" type="line"/>
      <point x="559" y="458" type="line"/>
      <point x="550" y="459" type="line"/>
      <point x="541" y="459" type="line"/>
      <point x="533" y="459" type="line"/>
      <point x="525" y="459" type="line"/>
      <point x="518" y="459" type="line"/>
      <point x="511" y="459" type="line"/>
      <point x="471" y="459" type="line"/>
      <point x="471" y="739" type="line"/>
      <point x="508" y="739" type="line"/>
      <point x="526" y="739" type="line"/>
      <point x="540" y="738" type="line"/>
      <point x="553" y="736" type="line"/>
      <point x="565" y="734" type="line"/>
      <point x="575" y="732" type="line"/>
      <point x="585" y="729" type="line"/>
      <point x="593" y="726" type="line"/>
      <point x="601" y="723" type="line"/>
      <point x="607" y="720" type="line"/>
      <point x="613" y="717" type="line"/>
      <point x="615" y="715" type="line"/>
      <point x="622" y="710" type="line"/>
      <point x="626" y="706" type="line"/>
      <point x="629" y="702" type="line"/>
      <point x="632" y="699" type="line"/>
      <point x="634" y="695" type="line"/>
      <point x="637" y="690" type="line"/>
      <point x="639" y="686" type="line"/>
      <point x="641" y="682" type="line"/>
      <point x="643" y="677" type="line"/>
      <point x="644" y="672" type="line"/>
      <point x="646" y="666" type="line"/>
      <point x="647" y="661" type="line"/>
      <point x="648" y="655" type="line"/>
      <point x="649" y="649" type="line"/>
      <point x="649" y="643" type="line"/>
      <point x="650" y="637" type="line"/>
      <point x="650" y="631" type="line"/>
      <point x="651" y="624" type="line"/>
      <point x="651" y="618" type="line"/>
      <point x="651" y="612" type="line"/>
      <point x="651" y="605" type="line"/>
      <point x="651" y="599" type="line" smooth="yes"/>
      <point x="651" y="567"/>
      <point x="679" y="539"/>
      <point x="711" y="539" type="curve" smooth="yes"/>
      <point x="743" y="539"/>
      <point x="771" y="567"/>
      <point x="771" y="599" type="curve" smooth="yes"/>
      <point x="771" y="606" type="line"/>
      <point x="771" y="613" type="line"/>
      <point x="771" y="621" type="line"/>
      <point x="771" y="630" type="line"/>
      <point x="770" y="639" type="line"/>
      <point x="770" y="648" type="line"/>
      <point x="769" y="657" type="line"/>
      <point x="767" y="667" type="line"/>
      <point x="766" y="677" type="line"/>
      <point x="764" y="688" type="line"/>
      <point x="761" y="698" type="line"/>
      <point x="758" y="709" type="line"/>
      <point x="755" y="720" type="line"/>
      <point x="750" y="731" type="line"/>
      <point x="745" y="742" type="line"/>
      <point x="739" y="753" type="line"/>
      <point x="732" y="764" type="line"/>
      <point x="725" y="775" type="line"/>
      <point x="716" y="785" type="line"/>
      <point x="706" y="795" type="line"/>
      <point x="696" y="804" type="line"/>
      <point x="688" y="810" type="line" smooth="yes"/>
      <point x="687" y="811"/>
      <point x="686" y="812"/>
      <point x="685" y="813" type="curve" smooth="yes"/>
      <point x="672" y="821" type="line"/>
      <point x="659" y="828" type="line"/>
      <point x="646" y="835" type="line"/>
      <point x="631" y="840" type="line"/>
      <point x="616" y="845" type="line"/>
      <point x="600" y="849" type="line"/>
      <point x="583" y="853" type="line"/>
      <point x="566" y="856" type="line"/>
      <point x="547" y="858" type="line"/>
      <point x="528" y="859" type="line"/>
      <point x="510" y="859" type="line" smooth="yes"/>
      <point x="510" y="859"/>
      <point x="509" y="859"/>
      <point x="509" y="859" type="curve" smooth="yes"/>
      <point x="318" y="859" type="line"/>
      <point x="307" y="859" type="line"/>
      <point x="286" y="859" type="line"/>
      <point x="267" y="857" type="line"/>
      <point x="248" y="855" type="line"/>
      <point x="231" y="852" type="line"/>
      <point x="214" y="849" type="line"/>
      <point x="197" y="844" type="line"/>
      <point x="182" y="839" type="line"/>
      <point x="167" y="833" type="line"/>
      <point x="154" y="826" type="line"/>
      <point x="141" y="818" type="line"/>
      <point x="129" y="809" type="line"/>
      <point x="121" y="803" type="line" smooth="yes"/>
      <point x="120" y="803"/>
      <point x="119" y="801"/>
      <point x="118" y="800" type="curve" smooth="yes"/>
      <point x="108" y="791" type="line"/>
      <point x="99" y="781" type="line"/>
      <point x="91" y="770" type="line"/>
      <point x="83" y="759" type="line"/>
      <point x="77" y="748" type="line"/>
      <point x="72" y="737" type="line"/>
      <point x="67" y="726" type="line"/>
      <point x="63" y="715" type="line"/>
      <point x="60" y="705" type="line"/>
      <point x="57" y="694" type="line"/>
      <point x="55" y="684" type="line"/>
      <point x="54" y="674" type="line"/>
      <point x="52" y="664" type="line"/>
      <point x="52" y="654" type="line"/>
      <point x="51" y="645" type="line"/>
      <point x="50" y="636" type="line"/>
      <point x="50" y="628" type="line"/>
      <point x="50" y="620" type="line"/>
      <point x="50" y="612" type="line"/>
      <point x="50" y="605" type="line"/>
      <point x="50" y="596" type="line"/>
      <point x="50" y="575" type="line"/>
      <point x="52" y="556" type="line"/>
      <point x="54" y="537" type="line"/>
      <point x="57" y="520" type="line"/>
      <point x="60" y="503" type="line"/>
      <point x="65" y="486" type="line"/>
      <point x="70" y="471" type="line"/>
      <point x="76" y="457" type="line"/>
      <point x="83" y="443" type="line"/>
      <point x="91" y="430" type="line"/>
      <point x="99" y="418" type="line"/>
      <point x="105" y="410" type="line" smooth="yes"/>
      <point x="106" y="409"/>
      <point x="107" y="408"/>
      <point x="108" y="407" type="curve" smooth="yes"/>
      <point x="118" y="397" type="line"/>
      <point x="128" y="388" type="line"/>
      <point x="139" y="380" type="line"/>
      <point x="149" y="372" type="line"/>
      <point x="160" y="366" type="line"/>
      <point x="171" y="361" type="line"/>
      <point x="182" y="356" type="line"/>
      <point x="193" y="352" type="line"/>
      <point x="204" y="349" type="line"/>
      <point x="214" y="346" type="line"/>
      <point x="225" y="344" type="line"/>
      <point x="235" y="343" type="line"/>
      <point x="245" y="341" type="line"/>
      <point x="254" y="341" type="line"/>
      <point x="264" y="340" type="line"/>
      <point x="273" y="339" type="line"/>
      <point x="281" y="339" type="line"/>
      <point x="289" y="339" type="line"/>
      <point x="296" y="339" type="line"/>
      <point x="303" y="339" type="line"/>
      <point x="310" y="339" type="line"/>
      <point x="351" y="339" type="line"/>
      <point x="351" y="59" type="line"/>
      <point x="310" y="59" type="line"/>
      <point x="304" y="59" type="line"/>
      <point x="297" y="59" type="line"/>
      <point x="291" y="59" type="line"/>
      <point x="284" y="59" type="line"/>
      <point x="278" y="59" type="line"/>
      <point x="272" y="60" type="line"/>
      <point x="265" y="60" type="line"/>
      <point x="259" y="61" type="line"/>
      <point x="253" y="62" type="line"/>
      <point x="248" y="63" type="line"/>
      <point x="242" y="64" type="line"/>
      <point x="237" y="65" type="line"/>
      <point x="232" y="67" type="line"/>
      <point x="227" y="69" type="line"/>
      <point x="222" y="70" type="line"/>
      <point x="218" y="72" type="line"/>
      <point x="214" y="75" type="line"/>
      <point x="210" y="77" type="line"/>
      <point x="203" y="83" type="line"/>
      <point x="203" y="83" type="line"/>
      <point x="199" y="87" type="line"/>
      <point x="196" y="91" type="line"/>
      <point x="192" y="96" type="line"/>
      <point x="189" y="101" type="line"/>
      <point x="186" y="108" type="line"/>
      <point x="183" y="115" type="line"/>
      <point x="180" y="123" type="line"/>
      <point x="177" y="133" type="line"/>
      <point x="175" y="143" type="line"/>
      <point x="173" y="155" type="line"/>
      <point x="171" y="168" type="line"/>
      <point x="170" y="182" type="line"/>
      <point x="170" y="200" type="line" smooth="yes"/>
      <point x="169" y="233"/>
      <point x="141" y="260"/>
      <point x="109" y="259" type="curve" smooth="yes"/>
      <point x="76" y="258"/>
      <point x="49" y="230"/>
      <point x="50" y="198" type="curve" smooth="yes"/>
      <point x="50" y="180" type="line"/>
      <point x="51" y="161" type="line"/>
      <point x="53" y="142" type="line"/>
      <point x="56" y="125" type="line"/>
      <point x="60" y="108" type="line"/>
      <point x="64" y="92" type="line"/>
      <point x="69" y="77" type="line"/>
      <point x="75" y="62" type="line"/>
      <point x="81" y="49" type="line"/>
      <point x="88" y="36" type="line"/>
      <point x="96" y="24" type="line"/>
      <point x="105" y="12" type="line"/>
      <point x="114" y="2" type="line"/>
      <point x="124" y="-7" type="line" smooth="yes"/>
      <point x="125" y="-8"/>
      <point x="127" y="-10"/>
      <point x="128" y="-10" type="curve" smooth="yes"/>
      <point x="135" y="-16" type="line"/>
      <point x="145" y="-24" type="line"/>
      <point x="156" y="-30" type="line"/>
      <point x="167" y="-36" type="line"/>
      <point x="178" y="-41" type="line"/>
      <point x="189" y="-45" type="line"/>
      <point x="200" y="-49" type="line"/>
      <point x="211" y="-52" type="line"/>
      <point x="222" y="-54" type="line"/>
      <point x="232" y="-56" type="line"/>
      <point x="242" y="-58" type="line"/>
      <point x="252" y="-59" type="line"/>
      <point x="262" y="-60" type="line"/>
      <point x="271" y="-60" type="line"/>
      <point x="280" y="-61" type="line"/>
      <point x="288" y="-61" type="line"/>
      <point x="296" y="-61" type="line"/>
      <point x="303" y="-61" type="line"/>
    </contour>
  </outline>
</glyph>
<glyph name="percent" format="1">
  <advance width="820"/>
  <unicode hex="0025"/>
  <outline>
    <contour>
      <point x="110" y="539" type="curve" smooth="yes"/>
      <point x="310" y="539" type="line" smooth="yes"/>
      <point x="343" y="539"/>
      <point x="370" y="566"/>
      <point x="370" y="599" type="curve" smooth="yes"/>
      <point x="370" y="789" type="line" smooth="yes"/>
      <point x="370" y="791"/>
      <point x="370" y="793"/>
      <point x="370" y="794" type="curve"/>
      <point x="370" y="796"/>
      <point x="370" y="798"/>
      <point x="370" y="800" type="curve" smooth="yes"/>
      <point x="369" y="833"/>
      <point x="341" y="860"/>
      <point x="309" y="859" type="curve" smooth="yes"/>
      <point x="291" y="859" type="line"/>
      <point x="272" y="857" type="line"/>
      <point x="253" y="856" type="line"/>
      <point x="236" y="853" type="line"/>
      <point x="219" y="849" type="line"/>
      <point x="203" y="845" type="line"/>
      <point x="188" y="840" type="line"/>
      <point x="173" y="834" type="line"/>
      <point x="160" y="828" type="line"/>
      <point x="147" y="820" type="line"/>
      <point x="134" y="812" type="line"/>
      <point x="123" y="804" type="line"/>
      <point x="113" y="794" type="line"/>
      <point x="103" y="784" type="line"/>
      <point x="95" y="774" type="line" smooth="yes"/>
      <point x="94" y="773"/>
      <point x="93" y="772"/>
      <point x="92" y="771" type="curve" smooth="yes"/>
      <point x="87" y="763" type="line"/>
      <point x="80" y="752" type="line"/>
      <point x="74" y="741" type="line"/>
      <point x="69" y="730" type="line"/>
      <point x="65" y="719" type="line"/>
      <point x="62" y="708" type="line"/>
      <point x="59" y="697" type="line"/>
      <point x="56" y="687" type="line"/>
      <point x="54" y="676" type="line"/>
      <point x="53" y="666" type="line"/>
      <point x="52" y="656" type="line"/>
      <point x="51" y="647" type="line"/>
      <point x="50" y="638" type="line"/>
      <point x="50" y="629" type="line"/>
      <point x="50" y="620" type="line"/>
      <point x="50" y="612" type="line"/>
      <point x="50" y="605" type="line"/>
      <point x="50" y="598" type="line" smooth="yes"/>
      <point x="50" y="566"/>
      <point x="77" y="539"/>
    </contour>
    <contour>
      <point x="158" y="-37" type="curve" smooth="yes"/>
      <point x="758" y="763" type="line" smooth="yes"/>
      <point x="777" y="789"/>
      <point x="772" y="828"/>
      <point x="746" y="847" type="curve" smooth="yes"/>
      <point x="720" y="866"/>
      <point x="681" y="861"/>
      <point x="662" y="835" type="curve" smooth="yes"/>
      <point x="62" y="35" type="line" smooth="yes"/>
      <point x="43" y="9"/>
      <point x="48" y="-30"/>
      <point x="74" y="-49" type="curve" smooth="yes"/>
      <point x="100" y="-68"/>
      <point x="139" y="-63"/>
    </contour>
    <contour>
      <point x="173" y="661" type="line"/>
      <point x="174" y="666" type="line"/>
      <point x="176" y="672" type="line"/>
      <point x="177" y="677" type="line"/>
      <point x="179" y="682" type="line"/>
      <point x="181" y="686" type="line"/>
      <point x="183" y="690" type="line"/>
      <point x="185" y="695" type="line"/>
      <point x="190" y="702" type="line"/>
      <point x="191" y="702" type="line"/>
      <point x="194" y="706" type="line"/>
      <point x="198" y="710" type="line"/>
      <point x="202" y="713" type="line"/>
      <point x="207" y="717" type="line"/>
      <point x="212" y="720" type="line"/>
      <point x="219" y="723" type="line"/>
      <point x="226" y="726" type="line"/>
      <point x="234" y="729" type="line"/>
      <point x="244" y="732" type="line"/>
      <point x="250" y="733" type="line"/>
      <point x="250" y="659" type="line"/>
      <point x="173" y="659" type="line"/>
    </contour>
    <contour>
      <point x="511" y="-61" type="curve" smooth="yes"/>
      <point x="529" y="-61" type="line"/>
      <point x="548" y="-59" type="line"/>
      <point x="567" y="-58" type="line"/>
      <point x="584" y="-55" type="line"/>
      <point x="601" y="-51" type="line"/>
      <point x="617" y="-47" type="line"/>
      <point x="632" y="-42" type="line"/>
      <point x="647" y="-36" type="line"/>
      <point x="660" y="-30" type="line"/>
      <point x="673" y="-22" type="line"/>
      <point x="686" y="-14" type="line"/>
      <point x="697" y="-6" type="line"/>
      <point x="707" y="4" type="line"/>
      <point x="717" y="14" type="line"/>
      <point x="725" y="24" type="line" smooth="yes"/>
      <point x="726" y="25"/>
      <point x="727" y="26"/>
      <point x="728" y="27" type="curve" smooth="yes"/>
      <point x="733" y="35" type="line"/>
      <point x="740" y="46" type="line"/>
      <point x="746" y="57" type="line"/>
      <point x="751" y="68" type="line"/>
      <point x="755" y="79" type="line"/>
      <point x="758" y="90" type="line"/>
      <point x="761" y="101" type="line"/>
      <point x="764" y="111" type="line"/>
      <point x="766" y="122" type="line"/>
      <point x="767" y="132" type="line"/>
      <point x="768" y="142" type="line"/>
      <point x="769" y="151" type="line"/>
      <point x="770" y="160" type="line"/>
      <point x="770" y="169" type="line"/>
      <point x="770" y="178" type="line"/>
      <point x="770" y="186" type="line"/>
      <point x="770" y="193" type="line"/>
      <point x="770" y="200" type="line" smooth="yes"/>
      <point x="770" y="232"/>
      <point x="743" y="259"/>
      <point x="710" y="259" type="curve" smooth="yes"/>
      <point x="510" y="259" type="line" smooth="yes"/>
      <point x="477" y="259"/>
      <point x="450" y="232"/>
      <point x="450" y="199" type="curve" smooth="yes"/>
      <point x="450" y="9" type="line" smooth="yes"/>
      <point x="450" y="7"/>
      <point x="450" y="5"/>
      <point x="450" y="4" type="curve"/>
      <point x="450" y="2"/>
      <point x="450" y="0"/>
      <point x="450" y="-2" type="curve" smooth="yes"/>
      <point x="451" y="-35"/>
      <point x="479" y="-62"/>
    </contour>
    <contour>
      <point x="576" y="66" type="line"/>
      <point x="570" y="65" type="line"/>
      <point x="570" y="139" type="line"/>
      <point x="647" y="139" type="line"/>
      <point x="647" y="137" type="line"/>
      <point x="646" y="132" type="line"/>
      <point x="644" y="126" type="line"/>
      <point x="643" y="121" type="line"/>
      <point x="641" y="116" type="line"/>
      <point x="639" y="112" type="line"/>
      <point x="637" y="108" type="line"/>
      <point x="635" y="103" type="line"/>
      <point x="630" y="96" type="line"/>
      <point x="629" y="96" type="line"/>
      <point x="626" y="92" type="line"/>
      <point x="622" y="88" type="line"/>
      <point x="618" y="85" type="line"/>
      <point x="613" y="81" type="line"/>
      <point x="608" y="78" type="line"/>
      <point x="601" y="75" type="line"/>
      <point x="594" y="72" type="line"/>
      <point x="586" y="69" type="line"/>
    </contour>
  </outline>
</glyph>
<glyph name="ampersand" format="1">
  <advance width="819"/>
  <unicode hex="0026"/>
  <outline>
    <contour>
      <point x="369" y="599" type="line"/>
      <point x="369" y="616" type="line"/>
      <point x="370" y="630" type="line"/>
      <point x="372" y="643" type="line"/>
      <point x="374" y="655" type="line"/>
      <point x="376" y="665" type="line"/>
      <point x="379" y="675" type="line"/>
      <point x="382" y="683" type="line"/>
      <point x="385" y="691" type="line"/>
      <point x="388" y="697" type="line"/>
      <point x="391" y="703" type="line"/>
      <point x="393" y="705" type="line"/>
      <point x="398" y="712" type="line"/>
      <point x="402" y="716" type="line"/>
      <point x="406" y="719" type="line"/>
      <point x="409" y="722" type="line"/>
      <point x="413" y="724" type="line"/>
      <point x="418" y="727" type="line"/>
      <point x="422" y="729" type="line"/>
      <point x="426" y="731" type="line"/>
      <point x="431" y="733" type="line"/>
      <point x="436" y="734" type="line"/>
      <point x="442" y="736" type="line"/>
      <point x="447" y="737" type="line"/>
      <point x="453" y="738" type="line"/>
      <point x="459" y="739" type="line"/>
      <point x="465" y="739" type="line"/>
      <point x="471" y="740" type="line"/>
      <point x="477" y="740" type="line"/>
      <point x="484" y="741" type="line"/>
      <point x="490" y="741" type="line"/>
      <point x="496" y="741" type="line"/>
      <point x="503" y="741" type="line"/>
      <point x="550" y="741" type="line"/>
      <point x="550" y="603" type="line"/>
      <point x="550" y="586" type="line"/>
      <point x="549" y="572" type="line"/>
      <point x="547" y="559" type="line"/>
      <point x="545" y="547" type="line"/>
      <point x="543" y="537" type="line"/>
      <point x="540" y="527" type="line"/>
      <point x="537" y="519" type="line"/>
      <point x="534" y="511" type="line"/>
      <point x="531" y="505" type="line"/>
      <point x="528" y="499" type="line"/>
      <point x="526" y="497" type="line"/>
      <point x="521" y="490" type="line"/>
      <point x="517" y="486" type="line"/>
      <point x="513" y="483" type="line"/>
      <point x="510" y="480" type="line"/>
      <point x="506" y="478" type="line"/>
      <point x="501" y="475" type="line"/>
      <point x="497" y="473" type="line"/>
      <point x="493" y="471" type="line"/>
      <point x="488" y="469" type="line"/>
      <point x="483" y="468" type="line"/>
      <point x="477" y="466" type="line"/>
      <point x="472" y="465" type="line"/>
      <point x="466" y="464" type="line"/>
      <point x="460" y="463" type="line"/>
      <point x="454" y="463" type="line"/>
      <point x="448" y="462" type="line"/>
      <point x="442" y="462" type="line"/>
      <point x="435" y="461" type="line"/>
      <point x="429" y="461" type="line"/>
      <point x="423" y="461" type="line"/>
      <point x="416" y="461" type="line"/>
      <point x="369" y="461" type="line"/>
    </contour>
    <contour>
      <point x="284" y="62" type="line"/>
      <point x="271" y="63" type="line"/>
      <point x="259" y="65" type="line"/>
      <point x="249" y="67" type="line"/>
      <point x="239" y="69" type="line"/>
      <point x="231" y="72" type="line"/>
      <point x="224" y="75" type="line"/>
      <point x="217" y="78" type="line"/>
      <point x="211" y="81" type="line"/>
      <point x="206" y="84" type="line"/>
      <point x="202" y="87" type="line"/>
      <point x="198" y="90" type="line"/>
      <point x="192" y="97" type="line"/>
      <point x="191" y="97" type="line"/>
      <point x="189" y="101" type="line"/>
      <point x="186" y="105" type="line"/>
      <point x="183" y="109" type="line"/>
      <point x="181" y="114" type="line"/>
      <point x="179" y="119" type="line"/>
      <point x="177" y="124" type="line"/>
      <point x="176" y="129" type="line"/>
      <point x="175" y="135" type="line"/>
      <point x="173" y="141" type="line"/>
      <point x="172" y="147" type="line"/>
      <point x="172" y="153" type="line"/>
      <point x="171" y="159" type="line"/>
      <point x="171" y="166" type="line"/>
      <point x="170" y="172" type="line"/>
      <point x="170" y="179" type="line"/>
      <point x="170" y="186" type="line"/>
      <point x="170" y="192" type="line"/>
      <point x="170" y="198" type="line"/>
      <point x="170" y="213" type="line"/>
      <point x="171" y="227" type="line"/>
      <point x="172" y="240" type="line"/>
      <point x="174" y="252" type="line"/>
      <point x="176" y="262" type="line"/>
      <point x="179" y="271" type="line"/>
      <point x="181" y="280" type="line"/>
      <point x="184" y="287" type="line"/>
      <point x="187" y="293" type="line"/>
      <point x="190" y="299" type="line"/>
      <point x="195" y="307" type="line"/>
      <point x="197" y="309" type="line"/>
      <point x="200" y="313" type="line"/>
      <point x="203" y="316" type="line"/>
      <point x="207" y="319" type="line"/>
      <point x="211" y="322" type="line"/>
      <point x="215" y="325" type="line"/>
      <point x="220" y="327" type="line"/>
      <point x="224" y="330" type="line"/>
      <point x="229" y="332" type="line"/>
      <point x="235" y="333" type="line"/>
      <point x="240" y="335" type="line"/>
      <point x="246" y="336" type="line"/>
      <point x="252" y="338" type="line"/>
      <point x="258" y="339" type="line"/>
      <point x="264" y="339" type="line"/>
      <point x="271" y="340" type="line"/>
      <point x="277" y="340" type="line"/>
      <point x="284" y="341" type="line"/>
      <point x="290" y="341" type="line"/>
      <point x="297" y="341" type="line"/>
      <point x="303" y="341" type="line"/>
      <point x="380" y="341" type="line"/>
      <point x="460" y="235" type="line"/>
      <point x="288" y="62" type="line"/>
    </contour>
    <contour>
      <point x="355" y="-41" type="curve" smooth="yes"/>
      <point x="533" y="138" type="line"/>
      <point x="662" y="-35" type="line" smooth="yes"/>
      <point x="681" y="-61"/>
      <point x="720" y="-66"/>
      <point x="746" y="-47" type="curve" smooth="yes"/>
      <point x="772" y="-28"/>
      <point x="777" y="11"/>
      <point x="758" y="37" type="curve" smooth="yes"/>
      <point x="618" y="224" type="line"/>
      <point x="744" y="351" type="line"/>
      <point x="752" y="358" type="line" smooth="yes"/>
      <point x="774" y="381"/>
      <point x="774" y="420"/>
      <point x="751" y="443" type="curve" smooth="yes"/>
      <point x="728" y="465"/>
      <point x="689" y="465"/>
      <point x="666" y="442" type="curve" smooth="yes"/>
      <point x="545" y="321" type="line"/>
      <point x="520" y="354" type="line"/>
      <point x="531" y="357" type="line"/>
      <point x="542" y="362" type="line"/>
      <point x="553" y="367" type="line"/>
      <point x="564" y="373" type="line"/>
      <point x="575" y="380" type="line"/>
      <point x="586" y="387" type="line"/>
      <point x="596" y="396" type="line"/>
      <point x="606" y="406" type="line"/>
      <point x="615" y="416" type="line"/>
      <point x="621" y="424" type="line" smooth="yes"/>
      <point x="622" y="425"/>
      <point x="623" y="426"/>
      <point x="624" y="427" type="curve" smooth="yes"/>
      <point x="632" y="440" type="line"/>
      <point x="639" y="453" type="line"/>
      <point x="646" y="466" type="line"/>
      <point x="651" y="481" type="line"/>
      <point x="656" y="496" type="line"/>
      <point x="660" y="512" type="line"/>
      <point x="664" y="529" type="line"/>
      <point x="667" y="546" type="line"/>
      <point x="669" y="565" type="line"/>
      <point x="670" y="584" type="line"/>
      <point x="670" y="603" type="line"/>
      <point x="670" y="801" type="line" smooth="yes"/>
      <point x="670" y="834"/>
      <point x="643" y="861"/>
      <point x="610" y="861" type="curve" smooth="yes"/>
      <point x="502" y="861" type="line"/>
      <point x="495" y="861" type="line"/>
      <point x="487" y="861" type="line"/>
      <point x="478" y="861" type="line"/>
      <point x="469" y="860" type="line"/>
      <point x="460" y="860" type="line"/>
      <point x="451" y="859" type="line"/>
      <point x="441" y="857" type="line"/>
      <point x="431" y="856" type="line"/>
      <point x="420" y="854" type="line"/>
      <point x="410" y="851" type="line"/>
      <point x="399" y="848" type="line"/>
      <point x="388" y="845" type="line"/>
      <point x="377" y="840" type="line"/>
      <point x="366" y="835" type="line"/>
      <point x="355" y="829" type="line"/>
      <point x="344" y="822" type="line"/>
      <point x="333" y="815" type="line"/>
      <point x="323" y="806" type="line"/>
      <point x="313" y="796" type="line"/>
      <point x="304" y="786" type="line"/>
      <point x="298" y="778" type="line" smooth="yes"/>
      <point x="297" y="777"/>
      <point x="296" y="776"/>
      <point x="295" y="775" type="curve" smooth="yes"/>
      <point x="287" y="762" type="line"/>
      <point x="280" y="749" type="line"/>
      <point x="273" y="736" type="line"/>
      <point x="268" y="721" type="line"/>
      <point x="263" y="706" type="line"/>
      <point x="259" y="690" type="line"/>
      <point x="255" y="673" type="line"/>
      <point x="252" y="656" type="line"/>
      <point x="250" y="637" type="line"/>
      <point x="249" y="618" type="line"/>
      <point x="249" y="599" type="line"/>
      <point x="249" y="458" type="line"/>
      <point x="244" y="458" type="line"/>
      <point x="234" y="456" type="line"/>
      <point x="224" y="454" type="line"/>
      <point x="213" y="452" type="line"/>
      <point x="203" y="449" type="line"/>
      <point x="192" y="446" type="line"/>
      <point x="181" y="442" type="line"/>
      <point x="170" y="437" type="line"/>
      <point x="159" y="431" type="line"/>
      <point x="148" y="425" type="line"/>
      <point x="138" y="417" type="line"/>
      <point x="127" y="409" type="line"/>
      <point x="117" y="400" type="line"/>
      <point x="108" y="389" type="line"/>
      <point x="99" y="378" type="line" smooth="yes"/>
      <point x="98" y="377"/>
      <point x="97" y="376"/>
      <point x="96" y="375" type="curve" smooth="yes"/>
      <point x="91" y="366" type="line"/>
      <point x="83" y="353" type="line"/>
      <point x="76" y="339" type="line"/>
      <point x="70" y="325" type="line"/>
      <point x="65" y="309" type="line"/>
      <point x="60" y="293" type="line"/>
      <point x="57" y="276" type="line"/>
      <point x="54" y="259" type="line"/>
      <point x="52" y="240" type="line"/>
      <point x="50" y="220" type="line"/>
      <point x="50" y="200" type="line"/>
      <point x="50" y="192" type="line"/>
      <point x="50" y="185" type="line"/>
      <point x="50" y="177" type="line"/>
      <point x="50" y="169" type="line"/>
      <point x="51" y="160" type="line"/>
      <point x="51" y="151" type="line"/>
      <point x="52" y="142" type="line"/>
      <point x="53" y="133" type="line"/>
      <point x="55" y="123" type="line"/>
      <point x="57" y="112" type="line"/>
      <point x="59" y="102" type="line"/>
      <point x="62" y="92" type="line"/>
      <point x="65" y="81" type="line"/>
      <point x="70" y="70" type="line"/>
      <point x="74" y="59" type="line"/>
      <point x="80" y="48" type="line"/>
      <point x="87" y="38" type="line"/>
      <point x="94" y="27" type="line"/>
      <point x="103" y="17" type="line" smooth="yes"/>
      <point x="103" y="16"/>
      <point x="105" y="14"/>
      <point x="105" y="14" type="curve" smooth="yes"/>
      <point x="112" y="7" type="line"/>
      <point x="122" y="-2" type="line"/>
      <point x="133" y="-11" type="line"/>
      <point x="145" y="-19" type="line"/>
      <point x="158" y="-27" type="line"/>
      <point x="172" y="-34" type="line"/>
      <point x="187" y="-39" type="line"/>
      <point x="202" y="-45" type="line"/>
      <point x="218" y="-49" type="line"/>
      <point x="235" y="-53" type="line"/>
      <point x="253" y="-55" type="line"/>
      <point x="271" y="-57" type="line"/>
      <point x="291" y="-59" type="line"/>
      <point x="311" y="-59" type="line" smooth="yes"/>
      <point x="325" y="-59"/>
      <point x="345" y="-51"/>
    </contour>
  </outline>
</glyph>
<glyph name="asterisk" format="1">
  <advance width="620"/>
  <unicode hex="002A"/>
  <outline>
    <contour>
      <point x="219" y="268" type="curve" smooth="yes"/>
      <point x="312" y="400" type="line"/>
      <point x="412" y="266" type="line" smooth="yes"/>
      <point x="431" y="240"/>
      <point x="470" y="235"/>
      <point x="496" y="254" type="curve" smooth="yes"/>
      <point x="522" y="273"/>
      <point x="527" y="312"/>
      <point x="508" y="338" type="curve" smooth="yes"/>
      <point x="430" y="442" type="line"/>
      <point x="510" y="442" type="line" smooth="yes"/>
      <point x="542" y="442"/>
      <point x="570" y="470"/>
      <point x="570" y="502" type="curve" smooth="yes"/>
      <point x="570" y="534"/>
      <point x="542" y="562"/>
      <point x="510" y="562" type="curve" smooth="yes"/>
      <point x="370" y="562" type="line"/>
      <point x="370" y="702" type="line" smooth="yes"/>
      <point x="370" y="734"/>
      <point x="342" y="762"/>
      <point x="310" y="762" type="curve" smooth="yes"/>
      <point x="278" y="762"/>
      <point x="250" y="734"/>
      <point x="250" y="702" type="curve" smooth="yes"/>
      <point x="250" y="562" type="line"/>
      <point x="110" y="562" type="line" smooth="yes"/>
      <point x="78" y="562"/>
      <point x="50" y="534"/>
      <point x="50" y="502" type="curve" smooth="yes"/>
      <point x="50" y="470"/>
      <point x="78" y="442"/>
      <point x="110" y="442" type="curve" smooth="yes"/>
      <point x="195" y="442" type="line"/>
      <point x="127" y="345" type="line"/>
      <point x="121" y="336" type="line" smooth="yes"/>
      <point x="102" y="310"/>
      <point x="109" y="271"/>
      <point x="136" y="253" type="curve" smooth="yes"/>
      <point x="162" y="234"/>
      <point x="201" y="241"/>
    </contour>
  </outline>
</glyph>
<glyph name="comma" format="1">
  <advance width="320"/>
  <unicode hex="002C"/>
  <outline>
    <contour>
      <point x="110" y="-118" type="curve" smooth="yes"/>
      <point x="210" y="-118" type="line" smooth="yes"/>
      <point x="243" y="-118"/>
      <point x="270" y="-91"/>
      <point x="270" y="-58" type="curve" smooth="yes"/>
      <point x="270" y="142" type="line" smooth="yes"/>
      <point x="270" y="174"/>
      <point x="242" y="202"/>
      <point x="210" y="202" type="curve" smooth="yes"/>
      <point x="178" y="202"/>
      <point x="150" y="174"/>
      <point x="150" y="142" type="curve" smooth="yes"/>
      <point x="150" y="2" type="line"/>
      <point x="110" y="2" type="line" smooth="yes"/>
      <point x="78" y="2"/>
      <point x="50" y="-26"/>
      <point x="50" y="-58" type="curve" smooth="yes"/>
      <point x="50" y="-90"/>
      <point x="78" y="-118"/>
    </contour>
  </outline>
</glyph>
<glyph name="period" format="1">
  <advance width="220"/>
  <unicode hex="002E"/>
  <outline>
    <contour>
      <point x="110" y="70" type="curve" smooth="yes"/>
      <point x="78" y="70"/>
      <point x="50" y="42"/>
      <point x="50" y="10" type="curve" smooth="yes"/>
      <point x="50" y="0" type="line" smooth="yes"/>
      <point x="50" y="-32"/>
      <point x="78" y="-60"/>
      <point x="110" y="-60" type="curve" smooth="yes"/>
      <point x="142" y="-60"/>
      <point x="170" y="-32"/>
      <point x="170" y="0" type="curve" smooth="yes"/>
      <point x="170" y="10" type="line" smooth="yes"/>
      <point x="170" y="42"/>
      <point x="142" y="70"/>
    </contour>
  </outline>
</glyph>
<glyph name="slash" format="1">
  <advance width="819"/>
  <unicode hex="002F"/>
  <outline>
    <contour>
      <point x="157" y="-34" type="curve" smooth="yes"/>
      <point x="757" y="766" type="line" smooth="yes"/>
      <point x="776" y="792"/>
      <point x="771" y="831"/>
      <point x="745" y="850" type="curve" smooth="yes"/>
      <point x="719" y="869"/>
      <point x="680" y="864"/>
      <point x="661" y="838" type="curve" smooth="yes"/>
      <point x="61" y="38" type="line" smooth="yes"/>
      <point x="42" y="12"/>
      <point x="47" y="-27"/>
      <point x="73" y="-46" type="curve" smooth="yes"/>
      <point x="99" y="-65"/>
      <point x="138" y="-60"/>
    </contour>
  </outline>
</glyph>
<glyph name="zero" format="1">
  <advance width="820"/>
  <unicode hex="0030"/>
  <outline>
    <contour>
      <point x="310" y="-58" type="line" smooth="yes"/>
      <point x="512" y="-58" type="line"/>
      <point x="531" y="-58" type="line"/>
      <point x="550" y="-57" type="line"/>
      <point x="569" y="-55" type="line"/>
      <point x="586" y="-52" type="line"/>
      <point x="603" y="-48" type="line"/>
      <point x="619" y="-44" type="line"/>
      <point x="634" y="-39" type="line"/>
      <point x="649" y="-33" type="line"/>
      <point x="662" y="-27" type="line"/>
      <point x="675" y="-20" type="line"/>
      <point x="687" y="-11" type="line"/>
      <point x="699" y="-3" type="line" smooth="yes"/>
      <point x="700" y="-2"/>
      <point x="701" y="-1"/>
      <point x="702" y="0" type="curve" smooth="yes"/>
      <point x="709" y="7" type="line"/>
      <point x="718" y="17" type="line"/>
      <point x="727" y="27" type="line"/>
      <point x="734" y="38" type="line"/>
      <point x="741" y="49" type="line"/>
      <point x="747" y="60" type="line"/>
      <point x="752" y="71" type="line"/>
      <point x="756" y="82" type="line"/>
      <point x="759" y="93" type="line"/>
      <point x="762" y="104" type="line"/>
      <point x="764" y="115" type="line"/>
      <point x="766" y="125" type="line"/>
      <point x="767" y="135" type="line"/>
      <point x="768" y="145" type="line"/>
      <point x="769" y="154" type="line"/>
      <point x="770" y="163" type="line"/>
      <point x="770" y="172" type="line"/>
      <point x="770" y="180" type="line"/>
      <point x="770" y="188" type="line"/>
      <point x="770" y="195" type="line"/>
      <point x="770" y="202" type="line"/>
      <point x="770" y="212" type="line"/>
      <point x="770" y="602" type="line"/>
      <point x="770" y="613" type="line"/>
      <point x="768" y="626" type="line"/>
      <point x="767" y="634" type="line"/>
      <point x="766" y="642" type="line"/>
      <point x="765" y="651" type="line"/>
      <point x="763" y="661" type="line"/>
      <point x="760" y="671" type="line"/>
      <point x="757" y="682" type="line"/>
      <point x="754" y="693" type="line"/>
      <point x="749" y="704" type="line"/>
      <point x="745" y="716" type="line"/>
      <point x="739" y="728" type="line"/>
      <point x="733" y="740" type="line"/>
      <point x="725" y="752" type="line"/>
      <point x="717" y="764" type="line"/>
      <point x="708" y="776" type="line"/>
      <point x="697" y="788" type="line"/>
      <point x="686" y="799" type="line" smooth="yes"/>
      <point x="685" y="800"/>
      <point x="684" y="801"/>
      <point x="683" y="802" type="curve" smooth="yes"/>
      <point x="673" y="809" type="line"/>
      <point x="660" y="820" type="line"/>
      <point x="645" y="829" type="line" smooth="yes"/>
      <point x="644" y="829"/>
      <point x="642" y="830"/>
      <point x="641" y="831" type="curve" smooth="yes"/>
      <point x="629" y="837" type="line"/>
      <point x="611" y="844" type="line" smooth="yes"/>
      <point x="610" y="845"/>
      <point x="608" y="846"/>
      <point x="607" y="846" type="curve" smooth="yes"/>
      <point x="593" y="850" type="line"/>
      <point x="574" y="855" type="line"/>
      <point x="553" y="859" type="line"/>
      <point x="532" y="861" type="line"/>
      <point x="510" y="862" type="line"/>
      <point x="498" y="862" type="line"/>
      <point x="308" y="862" type="line"/>
      <point x="289" y="862" type="line"/>
      <point x="270" y="860" type="line"/>
      <point x="251" y="859" type="line"/>
      <point x="234" y="856" type="line"/>
      <point x="217" y="852" type="line"/>
      <point x="201" y="848" type="line"/>
      <point x="186" y="843" type="line"/>
      <point x="171" y="837" type="line"/>
      <point x="157" y="831" type="line"/>
      <point x="145" y="823" type="line"/>
      <point x="132" y="815" type="line"/>
      <point x="121" y="806" type="line" smooth="yes"/>
      <point x="120" y="806"/>
      <point x="119" y="804"/>
      <point x="118" y="803" type="curve" smooth="yes"/>
      <point x="111" y="797" type="line"/>
      <point x="101" y="787" type="line"/>
      <point x="93" y="776" type="line"/>
      <point x="86" y="766" type="line"/>
      <point x="79" y="755" type="line"/>
      <point x="73" y="744" type="line"/>
      <point x="68" y="733" type="line"/>
      <point x="64" y="721" type="line"/>
      <point x="61" y="710" type="line"/>
      <point x="58" y="700" type="line"/>
      <point x="56" y="689" type="line"/>
      <point x="54" y="679" type="line"/>
      <point x="53" y="669" type="line"/>
      <point x="52" y="659" type="line"/>
      <point x="51" y="649" type="line"/>
      <point x="50" y="640" type="line"/>
      <point x="50" y="632" type="line"/>
      <point x="50" y="623" type="line"/>
      <point x="50" y="616" type="line"/>
      <point x="50" y="609" type="line"/>
      <point x="50" y="602" type="line"/>
      <point x="50" y="592" type="line"/>
      <point x="50" y="202" type="line"/>
      <point x="50" y="195" type="line"/>
      <point x="50" y="188" type="line"/>
      <point x="50" y="180" type="line"/>
      <point x="50" y="172" type="line"/>
      <point x="51" y="164" type="line"/>
      <point x="51" y="155" type="line"/>
      <point x="52" y="145" type="line"/>
      <point x="53" y="136" type="line"/>
      <point x="55" y="126" type="line"/>
      <point x="57" y="116" type="line"/>
      <point x="59" y="105" type="line"/>
      <point x="62" y="95" type="line"/>
      <point x="65" y="84" type="line"/>
      <point x="69" y="73" type="line"/>
      <point x="74" y="62" type="line"/>
      <point x="80" y="51" type="line"/>
      <point x="86" y="40" type="line"/>
      <point x="94" y="30" type="line"/>
      <point x="102" y="19" type="line"/>
      <point x="111" y="9" type="line"/>
      <point x="122" y="0" type="line"/>
      <point x="133" y="-9" type="line" smooth="yes"/>
      <point x="134" y="-10"/>
      <point x="135" y="-11"/>
      <point x="136" y="-12" type="curve" smooth="yes"/>
      <point x="145" y="-17" type="line"/>
      <point x="158" y="-25" type="line"/>
      <point x="172" y="-32" type="line"/>
      <point x="186" y="-38" type="line"/>
      <point x="202" y="-43" type="line"/>
      <point x="218" y="-48" type="line"/>
      <point x="235" y="-51" type="line"/>
      <point x="252" y="-54" type="line"/>
      <point x="271" y="-56" type="line"/>
      <point x="291" y="-58" type="line"/>
      <point x="309" y="-58" type="line"/>
    </contour>
    <contour>
      <point x="170" y="182" type="line"/>
      <point x="170" y="189" type="line"/>
      <point x="170" y="195" type="line"/>
      <point x="170" y="202" type="line"/>
      <point x="170" y="592" type="line"/>
      <point x="170" y="602" type="line"/>
      <point x="170" y="609" type="line"/>
      <point x="170" y="615" type="line"/>
      <point x="170" y="621" type="line"/>
      <point x="170" y="628" type="line"/>
      <point x="170" y="634" type="line"/>
      <point x="171" y="641" type="line"/>
      <point x="171" y="647" type="line"/>
      <point x="172" y="653" type="line"/>
      <point x="172" y="659" type="line"/>
      <point x="173" y="665" type="line"/>
      <point x="174" y="670" type="line"/>
      <point x="176" y="676" type="line"/>
      <point x="177" y="681" type="line"/>
      <point x="179" y="685" type="line"/>
      <point x="181" y="690" type="line"/>
      <point x="183" y="694" type="line"/>
      <point x="185" y="698" type="line"/>
      <point x="187" y="702" type="line"/>
      <point x="190" y="706" type="line"/>
      <point x="193" y="709" type="line"/>
      <point x="199" y="715" type="line"/>
      <point x="200" y="716" type="line"/>
      <point x="205" y="720" type="line"/>
      <point x="211" y="723" type="line"/>
      <point x="217" y="726" type="line"/>
      <point x="224" y="729" type="line"/>
      <point x="232" y="732" type="line"/>
      <point x="242" y="735" type="line"/>
      <point x="252" y="737" type="line"/>
      <point x="264" y="739" type="line"/>
      <point x="277" y="741" type="line"/>
      <point x="291" y="742" type="line"/>
      <point x="308" y="742" type="line"/>
      <point x="498" y="742" type="line"/>
      <point x="506" y="742" type="line"/>
      <point x="521" y="742" type="line"/>
      <point x="534" y="741" type="line"/>
      <point x="545" y="739" type="line"/>
      <point x="556" y="736" type="line"/>
      <point x="569" y="732" type="line"/>
      <point x="575" y="730" type="line"/>
      <point x="583" y="726" type="line"/>
      <point x="170" y="182" type="line"/>
    </contour>
    <contour>
      <point x="298" y="62" type="line"/>
      <point x="284" y="63" type="line"/>
      <point x="271" y="64" type="line"/>
      <point x="259" y="66" type="line"/>
      <point x="249" y="68" type="line"/>
      <point x="240" y="71" type="line"/>
      <point x="237" y="71" type="line"/>
      <point x="649" y="615" type="line"/>
      <point x="649" y="615" type="line"/>
      <point x="650" y="608" type="line"/>
      <point x="650" y="602" type="line"/>
      <point x="650" y="212" type="line"/>
      <point x="650" y="202" type="line"/>
      <point x="650" y="195" type="line"/>
      <point x="650" y="189" type="line"/>
      <point x="650" y="182" type="line"/>
      <point x="650" y="176" type="line"/>
      <point x="650" y="169" type="line"/>
      <point x="649" y="163" type="line"/>
      <point x="649" y="157" type="line"/>
      <point x="648" y="151" type="line"/>
      <point x="648" y="145" type="line"/>
      <point x="647" y="139" type="line"/>
      <point x="646" y="133" type="line"/>
      <point x="644" y="128" type="line"/>
      <point x="643" y="123" type="line"/>
      <point x="641" y="118" type="line"/>
      <point x="639" y="114" type="line"/>
      <point x="638" y="110" type="line"/>
      <point x="635" y="106" type="line"/>
      <point x="633" y="102" type="line"/>
      <point x="630" y="98" type="line"/>
      <point x="627" y="95" type="line"/>
      <point x="621" y="88" type="line"/>
      <point x="620" y="88" type="line"/>
      <point x="615" y="84" type="line"/>
      <point x="610" y="81" type="line"/>
      <point x="603" y="78" type="line"/>
      <point x="596" y="74" type="line"/>
      <point x="588" y="72" type="line"/>
      <point x="578" y="69" type="line"/>
      <point x="568" y="67" type="line"/>
      <point x="556" y="65" type="line"/>
      <point x="543" y="63" type="line"/>
      <point x="529" y="62" type="line"/>
      <point x="512" y="62" type="line"/>
      <point x="312" y="62" type="line"/>
    </contour>
  </outline>
</glyph>
<glyph name="one" format="1">
  <advance width="820"/>
  <unicode hex="0031"/>
  <outline>
    <contour>
      <point x="110" y="-59" type="curve" smooth="yes"/>
      <point x="710" y="-59" type="line" smooth="yes"/>
      <point x="742" y="-59"/>
      <point x="770" y="-31"/>
      <point x="770" y="1" type="curve" smooth="yes"/>
      <point x="770" y="33"/>
      <point x="742" y="61"/>
      <point x="710" y="61" type="curve" smooth="yes"/>
      <point x="444" y="61" type="line"/>
      <point x="450" y="75" type="line"/>
      <point x="455" y="91" type="line"/>
      <point x="460" y="107" type="line"/>
      <point x="463" y="124" type="line"/>
      <point x="466" y="142" type="line"/>
      <point x="468" y="160" type="line"/>
      <point x="470" y="180" type="line"/>
      <point x="470" y="200" type="line"/>
      <point x="470" y="211" type="line"/>
      <point x="470" y="791" type="line" smooth="yes"/>
      <point x="470" y="869"/>
      <point x="354" y="872"/>
      <point x="350" y="794" type="curve" smooth="yes"/>
      <point x="350" y="786" type="line"/>
      <point x="349" y="770" type="line"/>
      <point x="347" y="757" type="line"/>
      <point x="345" y="745" type="line"/>
      <point x="343" y="735" type="line"/>
      <point x="340" y="725" type="line"/>
      <point x="337" y="717" type="line"/>
      <point x="334" y="710" type="line"/>
      <point x="331" y="703" type="line"/>
      <point x="328" y="698" type="line"/>
      <point x="324" y="693" type="line"/>
      <point x="321" y="689" type="line"/>
      <point x="317" y="685" type="line"/>
      <point x="317" y="685" type="line"/>
      <point x="310" y="679" type="line"/>
      <point x="306" y="677" type="line"/>
      <point x="302" y="674" type="line"/>
      <point x="298" y="672" type="line"/>
      <point x="293" y="671" type="line"/>
      <point x="288" y="669" type="line"/>
      <point x="283" y="667" type="line"/>
      <point x="278" y="666" type="line"/>
      <point x="272" y="665" type="line"/>
      <point x="267" y="664" type="line"/>
      <point x="261" y="663" type="line"/>
      <point x="255" y="662" type="line"/>
      <point x="248" y="662" type="line"/>
      <point x="242" y="661" type="line"/>
      <point x="236" y="661" type="line"/>
      <point x="229" y="661" type="line"/>
      <point x="223" y="661" type="line"/>
      <point x="216" y="661" type="line"/>
      <point x="120" y="661" type="line"/>
      <point x="110" y="661" type="line" smooth="yes"/>
      <point x="78" y="661"/>
      <point x="50" y="633"/>
      <point x="50" y="601" type="curve" smooth="yes"/>
      <point x="50" y="569"/>
      <point x="78" y="541"/>
      <point x="110" y="541" type="curve" smooth="yes"/>
      <point x="217" y="541" type="line"/>
      <point x="224" y="541" type="line"/>
      <point x="232" y="541" type="line"/>
      <point x="240" y="541" type="line"/>
      <point x="249" y="542" type="line"/>
      <point x="258" y="542" type="line"/>
      <point x="268" y="543" type="line"/>
      <point x="278" y="544" type="line"/>
      <point x="288" y="546" type="line"/>
      <point x="298" y="548" type="line"/>
      <point x="309" y="550" type="line"/>
      <point x="320" y="553" type="line"/>
      <point x="331" y="557" type="line"/>
      <point x="342" y="561" type="line"/>
      <point x="350" y="565" type="line"/>
      <point x="350" y="211" type="line"/>
      <point x="350" y="202" type="line"/>
      <point x="350" y="187" type="line"/>
      <point x="349" y="173" type="line"/>
      <point x="348" y="160" type="line"/>
      <point x="346" y="149" type="line"/>
      <point x="344" y="138" type="line"/>
      <point x="341" y="129" type="line"/>
      <point x="339" y="121" type="line"/>
      <point x="336" y="113" type="line"/>
      <point x="333" y="107" type="line"/>
      <point x="330" y="102" type="line"/>
      <point x="327" y="97" type="line"/>
      <point x="324" y="92" type="line"/>
      <point x="320" y="88" type="line"/>
      <point x="314" y="82" type="line"/>
      <point x="313" y="82" type="line"/>
      <point x="309" y="79" type="line"/>
      <point x="305" y="76" type="line"/>
      <point x="301" y="74" type="line"/>
      <point x="296" y="72" type="line"/>
      <point x="291" y="70" type="line"/>
      <point x="286" y="68" type="line"/>
      <point x="280" y="67" type="line"/>
      <point x="275" y="65" type="line"/>
      <point x="269" y="64" type="line"/>
      <point x="263" y="63" type="line"/>
      <point x="256" y="62" type="line"/>
      <point x="250" y="62" type="line"/>
      <point x="243" y="62" type="line"/>
      <point x="237" y="61" type="line"/>
      <point x="230" y="61" type="line"/>
      <point x="223" y="61" type="line"/>
      <point x="217" y="61" type="line"/>
      <point x="210" y="61" type="line" smooth="yes"/>
      <point x="110" y="61" type="line" smooth="yes"/>
      <point x="78" y="61"/>
      <point x="50" y="33"/>
      <point x="50" y="1" type="curve" smooth="yes"/>
      <point x="50" y="-31"/>
      <point x="78" y="-59"/>
    </contour>
  </outline>
</glyph>
<glyph name="two" format="1">
  <advance width="820"/>
  <unicode hex="0032"/>
  <outline>
    <contour>
      <point x="110" y="-60" type="curve" smooth="yes"/>
      <point x="710" y="-60" type="line" smooth="yes"/>
      <point x="742" y="-60"/>
      <point x="770" y="-32"/>
      <point x="770" y="0" type="curve" smooth="yes"/>
      <point x="770" y="32"/>
      <point x="742" y="60"/>
      <point x="710" y="60" type="curve" smooth="yes"/>
      <point x="170" y="60" type="line"/>
      <point x="170" y="200" type="line"/>
      <point x="170" y="217" type="line"/>
      <point x="171" y="231" type="line"/>
      <point x="173" y="244" type="line"/>
      <point x="175" y="256" type="line"/>
      <point x="177" y="266" type="line"/>
      <point x="180" y="276" type="line"/>
      <point x="183" y="284" type="line"/>
      <point x="186" y="291" type="line"/>
      <point x="189" y="298" type="line"/>
      <point x="192" y="303" type="line"/>
      <point x="196" y="308" type="line"/>
      <point x="199" y="312" type="line"/>
      <point x="203" y="316" type="line"/>
      <point x="203" y="316" type="line"/>
      <point x="210" y="322" type="line"/>
      <point x="214" y="324" type="line"/>
      <point x="218" y="327" type="line"/>
      <point x="222" y="329" type="line"/>
      <point x="227" y="330" type="line"/>
      <point x="232" y="332" type="line"/>
      <point x="237" y="334" type="line"/>
      <point x="242" y="335" type="line"/>
      <point x="248" y="336" type="line"/>
      <point x="253" y="337" type="line"/>
      <point x="259" y="338" type="line"/>
      <point x="265" y="339" type="line"/>
      <point x="272" y="339" type="line"/>
      <point x="278" y="340" type="line"/>
      <point x="284" y="340" type="line"/>
      <point x="291" y="340" type="line"/>
      <point x="297" y="340" type="line"/>
      <point x="304" y="340" type="line"/>
      <point x="517" y="340" type="line"/>
      <point x="524" y="340" type="line"/>
      <point x="531" y="340" type="line"/>
      <point x="539" y="340" type="line"/>
      <point x="548" y="341" type="line"/>
      <point x="557" y="341" type="line"/>
      <point x="566" y="342" type="line"/>
      <point x="576" y="343" type="line"/>
      <point x="586" y="344" type="line"/>
      <point x="596" y="346" type="line"/>
      <point x="606" y="348" type="line"/>
      <point x="617" y="351" type="line"/>
      <point x="628" y="354" type="line"/>
      <point x="639" y="359" type="line"/>
      <point x="650" y="363" type="line"/>
      <point x="660" y="369" type="line"/>
      <point x="671" y="375" type="line"/>
      <point x="682" y="382" type="line"/>
      <point x="692" y="391" type="line" smooth="yes"/>
      <point x="693" y="391"/>
      <point x="695" y="393"/>
      <point x="696" y="394" type="curve" smooth="yes"/>
      <point x="702" y="400" type="line"/>
      <point x="712" y="410" type="line"/>
      <point x="721" y="421" type="line"/>
      <point x="729" y="433" type="line"/>
      <point x="737" y="446" type="line"/>
      <point x="744" y="460" type="line"/>
      <point x="750" y="474" type="line"/>
      <point x="755" y="490" type="line"/>
      <point x="760" y="506" type="line"/>
      <point x="763" y="523" type="line"/>
      <point x="766" y="541" type="line"/>
      <point x="768" y="559" type="line"/>
      <point x="770" y="579" type="line"/>
      <point x="770" y="599" type="line"/>
      <point x="770" y="611" type="line"/>
      <point x="769" y="624" type="line"/>
      <point x="768" y="632" type="line"/>
      <point x="767" y="640" type="line"/>
      <point x="765" y="649" type="line"/>
      <point x="763" y="658" type="line"/>
      <point x="761" y="668" type="line"/>
      <point x="758" y="679" type="line"/>
      <point x="754" y="690" type="line"/>
      <point x="750" y="702" type="line"/>
      <point x="746" y="713" type="line"/>
      <point x="740" y="725" type="line"/>
      <point x="734" y="737" type="line"/>
      <point x="727" y="750" type="line"/>
      <point x="719" y="762" type="line"/>
      <point x="709" y="774" type="line"/>
      <point x="699" y="785" type="line"/>
      <point x="688" y="797" type="line"/>
      <point x="675" y="807" type="line" smooth="yes"/>
      <point x="674" y="808"/>
      <point x="673" y="809"/>
      <point x="672" y="810" type="curve" smooth="yes"/>
      <point x="662" y="817" type="line"/>
      <point x="647" y="827" type="line" smooth="yes"/>
      <point x="646" y="827"/>
      <point x="644" y="828"/>
      <point x="643" y="829" type="curve" smooth="yes"/>
      <point x="631" y="835" type="line"/>
      <point x="613" y="842" type="line" smooth="yes"/>
      <point x="612" y="843"/>
      <point x="610" y="844"/>
      <point x="609" y="844" type="curve" smooth="yes"/>
      <point x="595" y="848" type="line"/>
      <point x="576" y="853" type="line"/>
      <point x="555" y="857" type="line"/>
      <point x="534" y="859" type="line"/>
      <point x="512" y="860" type="line"/>
      <point x="500" y="860" type="line"/>
      <point x="303" y="860" type="line"/>
      <point x="296" y="860" type="line"/>
      <point x="289" y="860" type="line"/>
      <point x="281" y="860" type="line"/>
      <point x="272" y="859" type="line"/>
      <point x="263" y="859" type="line"/>
      <point x="254" y="858" type="line"/>
      <point x="244" y="857" type="line"/>
      <point x="234" y="856" type="line"/>
      <point x="224" y="854" type="line"/>
      <point x="214" y="852" type="line"/>
      <point x="203" y="849" type="line"/>
      <point x="192" y="846" type="line"/>
      <point x="181" y="841" type="line"/>
      <point x="170" y="837" type="line"/>
      <point x="160" y="831" type="line"/>
      <point x="149" y="825" type="line"/>
      <point x="138" y="818" type="line"/>
      <point x="128" y="809" type="line" smooth="yes"/>
      <point x="127" y="809"/>
      <point x="125" y="807"/>
      <point x="124" y="806" type="curve" smooth="yes"/>
      <point x="118" y="800" type="line"/>
      <point x="108" y="790" type="line"/>
      <point x="99" y="779" type="line"/>
      <point x="91" y="767" type="line"/>
      <point x="83" y="754" type="line"/>
      <point x="76" y="740" type="line"/>
      <point x="70" y="726" type="line"/>
      <point x="65" y="710" type="line"/>
      <point x="60" y="694" type="line"/>
      <point x="57" y="677" type="line"/>
      <point x="54" y="659" type="line"/>
      <point x="52" y="641" type="line"/>
      <point x="50" y="621" type="line"/>
      <point x="50" y="601" type="line" smooth="yes"/>
      <point x="49" y="569"/>
      <point x="76" y="541"/>
      <point x="109" y="540" type="curve" smooth="yes"/>
      <point x="141" y="539"/>
      <point x="169" y="566"/>
      <point x="170" y="599" type="curve" smooth="yes"/>
      <point x="170" y="614" type="line"/>
      <point x="171" y="628" type="line"/>
      <point x="172" y="641" type="line"/>
      <point x="174" y="652" type="line"/>
      <point x="176" y="663" type="line"/>
      <point x="179" y="672" type="line"/>
      <point x="181" y="680" type="line"/>
      <point x="184" y="688" type="line"/>
      <point x="187" y="694" type="line"/>
      <point x="190" y="699" type="line"/>
      <point x="193" y="704" type="line"/>
      <point x="196" y="709" type="line"/>
      <point x="200" y="713" type="line"/>
      <point x="206" y="719" type="line"/>
      <point x="207" y="719" type="line"/>
      <point x="211" y="722" type="line"/>
      <point x="215" y="725" type="line"/>
      <point x="219" y="727" type="line"/>
      <point x="224" y="729" type="line"/>
      <point x="229" y="731" type="line"/>
      <point x="234" y="733" type="line"/>
      <point x="240" y="734" type="line"/>
      <point x="245" y="736" type="line"/>
      <point x="251" y="737" type="line"/>
      <point x="257" y="738" type="line"/>
      <point x="264" y="739" type="line"/>
      <point x="270" y="739" type="line"/>
      <point x="277" y="739" type="line"/>
      <point x="283" y="740" type="line"/>
      <point x="290" y="740" type="line"/>
      <point x="297" y="740" type="line"/>
      <point x="303" y="740" type="line"/>
      <point x="500" y="740" type="line"/>
      <point x="508" y="740" type="line"/>
      <point x="523" y="740" type="line"/>
      <point x="536" y="739" type="line"/>
      <point x="547" y="737" type="line"/>
      <point x="558" y="734" type="line"/>
      <point x="571" y="730" type="line"/>
      <point x="576" y="728" type="line"/>
      <point x="587" y="723" type="line"/>
      <point x="591" y="720" type="line"/>
      <point x="600" y="714" type="line"/>
      <point x="604" y="711" type="line"/>
      <point x="610" y="705" type="line"/>
      <point x="615" y="700" type="line"/>
      <point x="619" y="694" type="line"/>
      <point x="624" y="688" type="line"/>
      <point x="628" y="681" type="line"/>
      <point x="631" y="675" type="line"/>
      <point x="635" y="668" type="line"/>
      <point x="637" y="661" type="line"/>
      <point x="640" y="654" type="line"/>
      <point x="642" y="647" type="line"/>
      <point x="644" y="641" type="line"/>
      <point x="646" y="634" type="line"/>
      <point x="647" y="628" type="line"/>
      <point x="648" y="623" type="line"/>
      <point x="649" y="617" type="line"/>
      <point x="649" y="613" type="line"/>
      <point x="650" y="606" type="line"/>
      <point x="650" y="601" type="line"/>
      <point x="650" y="586" type="line"/>
      <point x="649" y="572" type="line"/>
      <point x="648" y="559" type="line"/>
      <point x="646" y="548" type="line"/>
      <point x="644" y="537" type="line"/>
      <point x="641" y="528" type="line"/>
      <point x="639" y="520" type="line"/>
      <point x="636" y="512" type="line"/>
      <point x="633" y="506" type="line"/>
      <point x="630" y="501" type="line"/>
      <point x="627" y="496" type="line"/>
      <point x="624" y="491" type="line"/>
      <point x="620" y="487" type="line"/>
      <point x="614" y="481" type="line"/>
      <point x="613" y="481" type="line"/>
      <point x="609" y="478" type="line"/>
      <point x="605" y="475" type="line"/>
      <point x="601" y="473" type="line"/>
      <point x="596" y="471" type="line"/>
      <point x="591" y="469" type="line"/>
      <point x="586" y="467" type="line"/>
      <point x="580" y="466" type="line"/>
      <point x="575" y="464" type="line"/>
      <point x="569" y="463" type="line"/>
      <point x="563" y="462" type="line"/>
      <point x="556" y="461" type="line"/>
      <point x="550" y="461" type="line"/>
      <point x="543" y="461" type="line"/>
      <point x="537" y="460" type="line"/>
      <point x="530" y="460" type="line"/>
      <point x="523" y="460" type="line"/>
      <point x="517" y="460" type="line"/>
      <point x="303" y="460" type="line"/>
      <point x="296" y="460" type="line"/>
      <point x="288" y="460" type="line"/>
      <point x="280" y="460" type="line"/>
      <point x="271" y="459" type="line"/>
      <point x="262" y="459" type="line"/>
      <point x="252" y="458" type="line"/>
      <point x="242" y="457" type="line"/>
      <point x="232" y="455" type="line"/>
      <point x="222" y="453" type="line"/>
      <point x="211" y="451" type="line"/>
      <point x="200" y="448" type="line"/>
      <point x="189" y="444" type="line"/>
      <point x="178" y="440" type="line"/>
      <point x="167" y="435" type="line"/>
      <point x="156" y="429" type="line"/>
      <point x="145" y="423" type="line"/>
      <point x="135" y="415" type="line"/>
      <point x="128" y="409" type="line" smooth="yes"/>
      <point x="127" y="409"/>
      <point x="125" y="407"/>
      <point x="124" y="406" type="curve" smooth="yes"/>
      <point x="114" y="397" type="line"/>
      <point x="105" y="387" type="line"/>
      <point x="96" y="375" type="line"/>
      <point x="88" y="363" type="line"/>
      <point x="81" y="350" type="line"/>
      <point x="75" y="337" type="line"/>
      <point x="69" y="322" type="line"/>
      <point x="64" y="307" type="line"/>
      <point x="60" y="291" type="line"/>
      <point x="56" y="274" type="line"/>
      <point x="53" y="257" type="line"/>
      <point x="51" y="238" type="line"/>
      <point x="50" y="219" type="line"/>
      <point x="50" y="200" type="line"/>
      <point x="50" y="0" type="line" smooth="yes"/>
      <point x="50" y="-33"/>
      <point x="77" y="-60"/>
    </contour>
  </outline>
</glyph>
<glyph name="four" format="1">
  <advance width="814"/>
  <unicode hex="0034"/>
  <outline>
    <contour>
      <point x="704" y="-59" type="curve" smooth="yes"/>
      <point x="736" y="-59"/>
      <point x="764" y="-31"/>
      <point x="764" y="1" type="curve" smooth="yes"/>
      <point x="764" y="600" type="line" smooth="yes"/>
      <point x="764" y="632"/>
      <point x="736" y="660"/>
      <point x="704" y="660" type="curve" smooth="yes"/>
      <point x="672" y="660"/>
      <point x="644" y="632"/>
      <point x="644" y="600" type="curve" smooth="yes"/>
      <point x="644" y="334" type="line"/>
      <point x="630" y="340" type="line"/>
      <point x="614" y="345" type="line"/>
      <point x="598" y="350" type="line"/>
      <point x="581" y="353" type="line"/>
      <point x="563" y="356" type="line"/>
      <point x="545" y="358" type="line"/>
      <point x="525" y="360" type="line"/>
      <point x="505" y="360" type="line"/>
      <point x="494" y="360" type="line"/>
      <point x="210" y="360" type="line"/>
      <point x="450" y="761" type="line"/>
      <point x="455" y="769" type="line" smooth="yes"/>
      <point x="472" y="797"/>
      <point x="463" y="835"/>
      <point x="435" y="851" type="curve" smooth="yes"/>
      <point x="407" y="868"/>
      <point x="369" y="859"/>
      <point x="353" y="831" type="curve" smooth="yes"/>
      <point x="63" y="348" type="line"/>
      <point x="58" y="339" type="line" smooth="yes"/>
      <point x="48" y="323"/>
      <point x="47" y="296"/>
      <point x="57" y="279" type="curve" smooth="yes"/>
      <point x="62" y="271" type="line" smooth="yes"/>
      <point x="71" y="254"/>
      <point x="95" y="240"/>
      <point x="114" y="240" type="curve" smooth="yes"/>
      <point x="494" y="240" type="line"/>
      <point x="503" y="240" type="line"/>
      <point x="518" y="240" type="line"/>
      <point x="532" y="239" type="line"/>
      <point x="545" y="238" type="line"/>
      <point x="556" y="236" type="line"/>
      <point x="567" y="234" type="line"/>
      <point x="576" y="231" type="line"/>
      <point x="584" y="229" type="line"/>
      <point x="592" y="226" type="line"/>
      <point x="598" y="223" type="line"/>
      <point x="603" y="220" type="line"/>
      <point x="608" y="217" type="line"/>
      <point x="613" y="214" type="line"/>
      <point x="617" y="210" type="line"/>
      <point x="623" y="204" type="line"/>
      <point x="623" y="203" type="line"/>
      <point x="626" y="199" type="line"/>
      <point x="629" y="195" type="line"/>
      <point x="631" y="191" type="line"/>
      <point x="633" y="186" type="line"/>
      <point x="635" y="181" type="line"/>
      <point x="637" y="176" type="line"/>
      <point x="638" y="170" type="line"/>
      <point x="640" y="165" type="line"/>
      <point x="641" y="159" type="line"/>
      <point x="642" y="153" type="line"/>
      <point x="643" y="146" type="line"/>
      <point x="643" y="140" type="line"/>
      <point x="643" y="133" type="line"/>
      <point x="644" y="127" type="line"/>
      <point x="644" y="120" type="line"/>
      <point x="644" y="113" type="line"/>
      <point x="644" y="107" type="line"/>
      <point x="644" y="100" type="line" smooth="yes"/>
      <point x="644" y="1" type="line" smooth="yes"/>
      <point x="644" y="-31"/>
      <point x="672" y="-59"/>
    </contour>
  </outline>
</glyph>
<glyph name="five" format="1">
  <advance width="820"/>
  <unicode hex="0035"/>
  <outline>
    <contour>
      <point x="310" y="-59" type="curve" smooth="yes"/>
      <point x="517" y="-59" type="line"/>
      <point x="524" y="-59" type="line"/>
      <point x="531" y="-59" type="line"/>
      <point x="539" y="-59" type="line"/>
      <point x="548" y="-58" type="line"/>
      <point x="557" y="-58" type="line"/>
      <point x="566" y="-57" type="line"/>
      <point x="576" y="-56" type="line"/>
      <point x="586" y="-55" type="line"/>
      <point x="596" y="-53" type="line"/>
      <point x="606" y="-51" type="line"/>
      <point x="617" y="-48" type="line"/>
      <point x="628" y="-45" type="line"/>
      <point x="639" y="-40" type="line"/>
      <point x="650" y="-36" type="line"/>
      <point x="660" y="-30" type="line"/>
      <point x="671" y="-24" type="line"/>
      <point x="682" y="-17" type="line"/>
      <point x="692" y="-8" type="line" smooth="yes"/>
      <point x="693" y="-8"/>
      <point x="695" y="-6"/>
      <point x="696" y="-5" type="curve" smooth="yes"/>
      <point x="702" y="1" type="line"/>
      <point x="712" y="11" type="line"/>
      <point x="721" y="22" type="line"/>
      <point x="729" y="34" type="line"/>
      <point x="737" y="47" type="line"/>
      <point x="744" y="61" type="line"/>
      <point x="750" y="75" type="line"/>
      <point x="755" y="91" type="line"/>
      <point x="760" y="107" type="line"/>
      <point x="763" y="124" type="line"/>
      <point x="766" y="142" type="line"/>
      <point x="768" y="160" type="line"/>
      <point x="770" y="180" type="line"/>
      <point x="770" y="200" type="line"/>
      <point x="770" y="208" type="line"/>
      <point x="770" y="215" type="line"/>
      <point x="770" y="222" type="line"/>
      <point x="770" y="230" type="line"/>
      <point x="769" y="239" type="line"/>
      <point x="769" y="248" type="line"/>
      <point x="768" y="257" type="line"/>
      <point x="767" y="267" type="line"/>
      <point x="766" y="277" type="line"/>
      <point x="764" y="287" type="line"/>
      <point x="762" y="297" type="line"/>
      <point x="759" y="308" type="line"/>
      <point x="756" y="319" type="line"/>
      <point x="751" y="330" type="line"/>
      <point x="747" y="341" type="line"/>
      <point x="741" y="351" type="line"/>
      <point x="735" y="362" type="line"/>
      <point x="728" y="373" type="line"/>
      <point x="719" y="383" type="line" smooth="yes"/>
      <point x="719" y="384"/>
      <point x="717" y="386"/>
      <point x="716" y="387" type="curve" smooth="yes"/>
      <point x="710" y="393" type="line"/>
      <point x="700" y="403" type="line"/>
      <point x="689" y="412" type="line"/>
      <point x="677" y="420" type="line"/>
      <point x="664" y="428" type="line"/>
      <point x="650" y="435" type="line"/>
      <point x="636" y="441" type="line"/>
      <point x="620" y="446" type="line"/>
      <point x="604" y="451" type="line"/>
      <point x="587" y="454" type="line"/>
      <point x="569" y="457" type="line"/>
      <point x="551" y="459" type="line"/>
      <point x="531" y="461" type="line"/>
      <point x="511" y="461" type="line"/>
      <point x="500" y="461" type="line"/>
      <point x="170" y="461" type="line"/>
      <point x="170" y="601" type="line"/>
      <point x="170" y="608" type="line"/>
      <point x="170" y="614" type="line"/>
      <point x="170" y="621" type="line"/>
      <point x="170" y="628" type="line"/>
      <point x="171" y="634" type="line"/>
      <point x="171" y="641" type="line"/>
      <point x="171" y="647" type="line"/>
      <point x="172" y="654" type="line"/>
      <point x="173" y="660" type="line"/>
      <point x="174" y="666" type="line"/>
      <point x="176" y="671" type="line"/>
      <point x="177" y="677" type="line"/>
      <point x="179" y="682" type="line"/>
      <point x="181" y="687" type="line"/>
      <point x="183" y="692" type="line"/>
      <point x="185" y="696" type="line"/>
      <point x="188" y="700" type="line"/>
      <point x="191" y="704" type="line"/>
      <point x="191" y="705" type="line"/>
      <point x="197" y="711" type="line"/>
      <point x="201" y="715" type="line"/>
      <point x="206" y="718" type="line"/>
      <point x="211" y="721" type="line"/>
      <point x="216" y="724" type="line"/>
      <point x="222" y="727" type="line"/>
      <point x="230" y="730" type="line"/>
      <point x="238" y="732" type="line"/>
      <point x="247" y="735" type="line"/>
      <point x="258" y="737" type="line"/>
      <point x="269" y="739" type="line"/>
      <point x="282" y="740" type="line"/>
      <point x="296" y="741" type="line"/>
      <point x="311" y="741" type="line"/>
      <point x="320" y="741" type="line"/>
      <point x="710" y="741" type="line" smooth="yes"/>
      <point x="742" y="741"/>
      <point x="770" y="769"/>
      <point x="770" y="801" type="curve" smooth="yes"/>
      <point x="770" y="833"/>
      <point x="742" y="861"/>
      <point x="710" y="861" type="curve" smooth="yes"/>
      <point x="320" y="861" type="line"/>
      <point x="309" y="861" type="line"/>
      <point x="289" y="861" type="line"/>
      <point x="269" y="859" type="line"/>
      <point x="251" y="857" type="line"/>
      <point x="233" y="854" type="line"/>
      <point x="216" y="851" type="line"/>
      <point x="200" y="846" type="line"/>
      <point x="184" y="841" type="line"/>
      <point x="170" y="835" type="line"/>
      <point x="156" y="828" type="line"/>
      <point x="143" y="820" type="line"/>
      <point x="131" y="812" type="line"/>
      <point x="120" y="803" type="line"/>
      <point x="110" y="793" type="line"/>
      <point x="104" y="787" type="line" smooth="yes"/>
      <point x="103" y="786"/>
      <point x="101" y="784"/>
      <point x="101" y="783" type="curve" smooth="yes"/>
      <point x="92" y="773" type="line"/>
      <point x="85" y="762" type="line"/>
      <point x="79" y="751" type="line"/>
      <point x="73" y="741" type="line"/>
      <point x="69" y="730" type="line"/>
      <point x="64" y="719" type="line"/>
      <point x="61" y="708" type="line"/>
      <point x="58" y="697" type="line"/>
      <point x="56" y="687" type="line"/>
      <point x="54" y="677" type="line"/>
      <point x="53" y="667" type="line"/>
      <point x="52" y="657" type="line"/>
      <point x="51" y="648" type="line"/>
      <point x="51" y="639" type="line"/>
      <point x="50" y="630" type="line"/>
      <point x="50" y="622" type="line"/>
      <point x="50" y="615" type="line"/>
      <point x="50" y="608" type="line"/>
      <point x="50" y="601" type="line"/>
      <point x="50" y="401" type="line" smooth="yes"/>
      <point x="50" y="368"/>
      <point x="77" y="341"/>
      <point x="110" y="341" type="curve" smooth="yes"/>
      <point x="500" y="341" type="line"/>
      <point x="509" y="341" type="line"/>
      <point x="524" y="341" type="line"/>
      <point x="538" y="340" type="line"/>
      <point x="551" y="339" type="line"/>
      <point x="562" y="337" type="line"/>
      <point x="573" y="335" type="line"/>
      <point x="582" y="332" type="line"/>
      <point x="590" y="330" type="line"/>
      <point x="598" y="327" type="line"/>
      <point x="604" y="324" type="line"/>
      <point x="609" y="321" type="line"/>
      <point x="614" y="318" type="line"/>
      <point x="619" y="315" type="line"/>
      <point x="623" y="311" type="line"/>
      <point x="629" y="305" type="line"/>
      <point x="629" y="304" type="line"/>
      <point x="632" y="300" type="line"/>
      <point x="635" y="296" type="line"/>
      <point x="637" y="292" type="line"/>
      <point x="639" y="287" type="line"/>
      <point x="641" y="282" type="line"/>
      <point x="643" y="277" type="line"/>
      <point x="644" y="271" type="line"/>
      <point x="646" y="266" type="line"/>
      <point x="647" y="260" type="line"/>
      <point x="648" y="254" type="line"/>
      <point x="649" y="247" type="line"/>
      <point x="649" y="241" type="line"/>
      <point x="649" y="234" type="line"/>
      <point x="650" y="228" type="line"/>
      <point x="650" y="221" type="line"/>
      <point x="650" y="214" type="line"/>
      <point x="650" y="208" type="line"/>
      <point x="650" y="202" type="line"/>
      <point x="650" y="187" type="line"/>
      <point x="649" y="173" type="line"/>
      <point x="648" y="160" type="line"/>
      <point x="646" y="149" type="line"/>
      <point x="644" y="138" type="line"/>
      <point x="641" y="129" type="line"/>
      <point x="639" y="121" type="line"/>
      <point x="636" y="113" type="line"/>
      <point x="633" y="107" type="line"/>
      <point x="630" y="102" type="line"/>
      <point x="627" y="97" type="line"/>
      <point x="624" y="92" type="line"/>
      <point x="620" y="88" type="line"/>
      <point x="614" y="82" type="line"/>
      <point x="613" y="82" type="line"/>
      <point x="609" y="79" type="line"/>
      <point x="605" y="76" type="line"/>
      <point x="601" y="74" type="line"/>
      <point x="596" y="72" type="line"/>
      <point x="591" y="70" type="line"/>
      <point x="586" y="68" type="line"/>
      <point x="580" y="67" type="line"/>
      <point x="575" y="65" type="line"/>
      <point x="569" y="64" type="line"/>
      <point x="563" y="63" type="line"/>
      <point x="556" y="62" type="line"/>
      <point x="550" y="62" type="line"/>
      <point x="543" y="62" type="line"/>
      <point x="537" y="61" type="line"/>
      <point x="530" y="61" type="line"/>
      <point x="523" y="61" type="line"/>
      <point x="517" y="61" type="line"/>
      <point x="310" y="61" type="line"/>
      <point x="296" y="61" type="line"/>
      <point x="282" y="62" type="line"/>
      <point x="269" y="63" type="line"/>
      <point x="258" y="65" type="line"/>
      <point x="247" y="67" type="line"/>
      <point x="238" y="70" type="line"/>
      <point x="230" y="72" type="line"/>
      <point x="222" y="75" type="line"/>
      <point x="216" y="78" type="line"/>
      <point x="211" y="81" type="line"/>
      <point x="206" y="84" type="line"/>
      <point x="201" y="87" type="line"/>
      <point x="197" y="91" type="line"/>
      <point x="191" y="97" type="line"/>
      <point x="191" y="98" type="line"/>
      <point x="188" y="102" type="line"/>
      <point x="185" y="106" type="line"/>
      <point x="183" y="110" type="line"/>
      <point x="181" y="115" type="line"/>
      <point x="179" y="120" type="line"/>
      <point x="177" y="125" type="line"/>
      <point x="176" y="131" type="line"/>
      <point x="174" y="136" type="line"/>
      <point x="173" y="142" type="line"/>
      <point x="172" y="148" type="line"/>
      <point x="171" y="155" type="line"/>
      <point x="171" y="161" type="line"/>
      <point x="171" y="168" type="line"/>
      <point x="170" y="174" type="line"/>
      <point x="170" y="181" type="line"/>
      <point x="170" y="188" type="line"/>
      <point x="170" y="194" type="line"/>
      <point x="170" y="201" type="line" smooth="yes"/>
      <point x="170" y="233"/>
      <point x="142" y="261"/>
      <point x="110" y="261" type="curve" smooth="yes"/>
      <point x="78" y="261"/>
      <point x="50" y="233"/>
      <point x="50" y="201" type="curve" smooth="yes"/>
      <point x="50" y="194" type="line"/>
      <point x="50" y="187" type="line"/>
      <point x="50" y="180" type="line"/>
      <point x="50" y="172" type="line"/>
      <point x="51" y="163" type="line"/>
      <point x="51" y="154" type="line"/>
      <point x="52" y="145" type="line"/>
      <point x="53" y="135" type="line"/>
      <point x="54" y="125" type="line"/>
      <point x="56" y="115" type="line"/>
      <point x="58" y="105" type="line"/>
      <point x="61" y="94" type="line"/>
      <point x="64" y="83" type="line"/>
      <point x="69" y="72" type="line"/>
      <point x="73" y="61" type="line"/>
      <point x="79" y="51" type="line"/>
      <point x="85" y="40" type="line"/>
      <point x="92" y="29" type="line"/>
      <point x="101" y="19" type="line" smooth="yes"/>
      <point x="101" y="18"/>
      <point x="103" y="16"/>
      <point x="104" y="15" type="curve" smooth="yes"/>
      <point x="110" y="9" type="line"/>
      <point x="120" y="-1" type="line"/>
      <point x="131" y="-10" type="line"/>
      <point x="143" y="-18" type="line"/>
      <point x="156" y="-26" type="line"/>
      <point x="170" y="-33" type="line"/>
      <point x="184" y="-39" type="line"/>
      <point x="200" y="-44" type="line"/>
      <point x="216" y="-49" type="line"/>
      <point x="233" y="-52" type="line"/>
      <point x="251" y="-55" type="line"/>
      <point x="269" y="-57" type="line"/>
      <point x="289" y="-59" type="line"/>
      <point x="309" y="-59" type="line" smooth="yes"/>
      <point x="309" y="-59"/>
      <point x="310" y="-59"/>
    </contour>
  </outline>
</glyph>
<glyph name="six" format="1">
  <advance width="820"/>
  <unicode hex="0036"/>
  <outline>
    <contour>
      <point x="517" y="-59" type="line"/>
      <point x="524" y="-59" type="line"/>
      <point x="532" y="-59" type="line"/>
      <point x="540" y="-59" type="line"/>
      <point x="549" y="-58" type="line"/>
      <point x="558" y="-58" type="line"/>
      <point x="568" y="-57" type="line"/>
      <point x="578" y="-56" type="line"/>
      <point x="588" y="-54" type="line"/>
      <point x="598" y="-52" type="line"/>
      <point x="609" y="-50" type="line"/>
      <point x="620" y="-47" type="line"/>
      <point x="631" y="-43" type="line"/>
      <point x="642" y="-39" type="line"/>
      <point x="653" y="-34" type="line"/>
      <point x="664" y="-28" type="line"/>
      <point x="675" y="-22" type="line"/>
      <point x="685" y="-14" type="line"/>
      <point x="692" y="-8" type="line" smooth="yes"/>
      <point x="693" y="-8"/>
      <point x="695" y="-6"/>
      <point x="696" y="-5" type="curve" smooth="yes"/>
      <point x="706" y="4" type="line"/>
      <point x="715" y="14" type="line"/>
      <point x="724" y="26" type="line"/>
      <point x="732" y="38" type="line"/>
      <point x="739" y="51" type="line"/>
      <point x="745" y="64" type="line"/>
      <point x="751" y="79" type="line"/>
      <point x="756" y="94" type="line"/>
      <point x="760" y="110" type="line"/>
      <point x="764" y="127" type="line"/>
      <point x="767" y="144" type="line"/>
      <point x="769" y="163" type="line"/>
      <point x="770" y="182" type="line"/>
      <point x="770" y="201" type="line"/>
      <point x="770" y="208" type="line"/>
      <point x="770" y="215" type="line"/>
      <point x="770" y="223" type="line"/>
      <point x="770" y="231" type="line"/>
      <point x="769" y="240" type="line"/>
      <point x="769" y="249" type="line"/>
      <point x="768" y="259" type="line"/>
      <point x="767" y="269" type="line"/>
      <point x="765" y="279" type="line"/>
      <point x="763" y="289" type="line"/>
      <point x="761" y="300" type="line"/>
      <point x="758" y="311" type="line"/>
      <point x="754" y="322" type="line"/>
      <point x="750" y="333" type="line"/>
      <point x="745" y="344" type="line"/>
      <point x="739" y="355" type="line"/>
      <point x="733" y="366" type="line"/>
      <point x="725" y="376" type="line"/>
      <point x="719" y="383" type="line" smooth="yes"/>
      <point x="719" y="384"/>
      <point x="717" y="386"/>
      <point x="716" y="387" type="curve" smooth="yes"/>
      <point x="707" y="397" type="line"/>
      <point x="697" y="406" type="line"/>
      <point x="685" y="415" type="line"/>
      <point x="673" y="423" type="line"/>
      <point x="660" y="430" type="line"/>
      <point x="647" y="436" type="line"/>
      <point x="632" y="442" type="line"/>
      <point x="617" y="447" type="line"/>
      <point x="601" y="451" type="line"/>
      <point x="584" y="455" type="line"/>
      <point x="567" y="458" type="line"/>
      <point x="548" y="460" type="line"/>
      <point x="529" y="461" type="line"/>
      <point x="511" y="461" type="line" smooth="yes"/>
      <point x="511" y="461"/>
      <point x="510" y="461"/>
      <point x="510" y="461" type="curve" smooth="yes"/>
      <point x="310" y="461" type="line"/>
      <point x="296" y="461" type="line"/>
      <point x="282" y="462" type="line"/>
      <point x="269" y="463" type="line"/>
      <point x="258" y="465" type="line"/>
      <point x="247" y="467" type="line"/>
      <point x="238" y="470" type="line"/>
      <point x="230" y="472" type="line"/>
      <point x="222" y="475" type="line"/>
      <point x="216" y="478" type="line"/>
      <point x="211" y="481" type="line"/>
      <point x="206" y="484" type="line"/>
      <point x="201" y="487" type="line"/>
      <point x="197" y="491" type="line"/>
      <point x="191" y="497" type="line"/>
      <point x="191" y="498" type="line"/>
      <point x="188" y="502" type="line"/>
      <point x="185" y="506" type="line"/>
      <point x="183" y="510" type="line"/>
      <point x="181" y="515" type="line"/>
      <point x="179" y="520" type="line"/>
      <point x="177" y="525" type="line"/>
      <point x="176" y="531" type="line"/>
      <point x="174" y="536" type="line"/>
      <point x="173" y="542" type="line"/>
      <point x="172" y="548" type="line"/>
      <point x="171" y="555" type="line"/>
      <point x="171" y="561" type="line"/>
      <point x="171" y="568" type="line"/>
      <point x="170" y="574" type="line"/>
      <point x="170" y="581" type="line"/>
      <point x="170" y="588" type="line"/>
      <point x="170" y="594" type="line"/>
      <point x="170" y="601" type="line" smooth="yes"/>
      <point x="170" y="601" type="line"/>
      <point x="170" y="608" type="line"/>
      <point x="170" y="614" type="line"/>
      <point x="170" y="621" type="line"/>
      <point x="170" y="628" type="line"/>
      <point x="171" y="634" type="line"/>
      <point x="171" y="641" type="line"/>
      <point x="171" y="647" type="line"/>
      <point x="172" y="654" type="line"/>
      <point x="173" y="660" type="line"/>
      <point x="174" y="666" type="line"/>
      <point x="176" y="671" type="line"/>
      <point x="177" y="677" type="line"/>
      <point x="179" y="682" type="line"/>
      <point x="181" y="687" type="line"/>
      <point x="183" y="692" type="line"/>
      <point x="185" y="696" type="line"/>
      <point x="188" y="700" type="line"/>
      <point x="191" y="704" type="line"/>
      <point x="191" y="705" type="line"/>
      <point x="197" y="711" type="line"/>
      <point x="201" y="715" type="line"/>
      <point x="206" y="718" type="line"/>
      <point x="211" y="721" type="line"/>
      <point x="216" y="724" type="line"/>
      <point x="222" y="727" type="line"/>
      <point x="230" y="730" type="line"/>
      <point x="238" y="732" type="line"/>
      <point x="247" y="735" type="line"/>
      <point x="258" y="737" type="line"/>
      <point x="269" y="739" type="line"/>
      <point x="282" y="740" type="line"/>
      <point x="296" y="741" type="line"/>
      <point x="311" y="741" type="line"/>
      <point x="320" y="741" type="line"/>
      <point x="510" y="741" type="line"/>
      <point x="517" y="741" type="line"/>
      <point x="523" y="741" type="line"/>
      <point x="530" y="741" type="line"/>
      <point x="537" y="741" type="line"/>
      <point x="543" y="740" type="line"/>
      <point x="550" y="740" type="line"/>
      <point x="556" y="740" type="line"/>
      <point x="563" y="739" type="line"/>
      <point x="569" y="738" type="line"/>
      <point x="575" y="737" type="line"/>
      <point x="580" y="735" type="line"/>
      <point x="586" y="734" type="line"/>
      <point x="591" y="732" type="line"/>
      <point x="596" y="730" type="line"/>
      <point x="601" y="728" type="line"/>
      <point x="605" y="726" type="line"/>
      <point x="609" y="723" type="line"/>
      <point x="613" y="720" type="line"/>
      <point x="614" y="720" type="line"/>
      <point x="620" y="714" type="line"/>
      <point x="624" y="710" type="line"/>
      <point x="627" y="705" type="line"/>
      <point x="630" y="700" type="line"/>
      <point x="633" y="695" type="line"/>
      <point x="636" y="689" type="line"/>
      <point x="639" y="681" type="line"/>
      <point x="641" y="673" type="line"/>
      <point x="644" y="664" type="line"/>
      <point x="646" y="653" type="line"/>
      <point x="648" y="642" type="line"/>
      <point x="649" y="629" type="line"/>
      <point x="650" y="615" type="line"/>
      <point x="650" y="600" type="line" smooth="yes"/>
      <point x="651" y="567"/>
      <point x="679" y="540"/>
      <point x="711" y="541" type="curve" smooth="yes"/>
      <point x="744" y="542"/>
      <point x="771" y="570"/>
      <point x="770" y="602" type="curve" smooth="yes"/>
      <point x="770" y="622" type="line"/>
      <point x="768" y="642" type="line"/>
      <point x="766" y="660" type="line"/>
      <point x="763" y="678" type="line"/>
      <point x="760" y="695" type="line"/>
      <point x="755" y="711" type="line"/>
      <point x="750" y="727" type="line"/>
      <point x="744" y="741" type="line"/>
      <point x="737" y="755" type="line"/>
      <point x="729" y="768" type="line"/>
      <point x="721" y="780" type="line"/>
      <point x="712" y="791" type="line"/>
      <point x="702" y="801" type="line"/>
      <point x="696" y="807" type="line" smooth="yes"/>
      <point x="695" y="808"/>
      <point x="693" y="810"/>
      <point x="692" y="810" type="curve" smooth="yes"/>
      <point x="682" y="819" type="line"/>
      <point x="671" y="826" type="line"/>
      <point x="660" y="832" type="line"/>
      <point x="650" y="838" type="line"/>
      <point x="639" y="842" type="line"/>
      <point x="628" y="847" type="line"/>
      <point x="617" y="850" type="line"/>
      <point x="606" y="853" type="line"/>
      <point x="596" y="855" type="line"/>
      <point x="586" y="857" type="line"/>
      <point x="576" y="858" type="line"/>
      <point x="566" y="859" type="line"/>
      <point x="557" y="860" type="line"/>
      <point x="548" y="860" type="line"/>
      <point x="539" y="861" type="line"/>
      <point x="531" y="861" type="line"/>
      <point x="524" y="861" type="line"/>
      <point x="517" y="861" type="line"/>
      <point x="510" y="861" type="line" smooth="yes"/>
      <point x="320" y="861" type="line"/>
      <point x="309" y="861" type="line"/>
      <point x="289" y="861" type="line"/>
      <point x="269" y="859" type="line"/>
      <point x="251" y="857" type="line"/>
      <point x="233" y="854" type="line"/>
      <point x="216" y="851" type="line"/>
      <point x="200" y="846" type="line"/>
      <point x="184" y="841" type="line"/>
      <point x="170" y="835" type="line"/>
      <point x="156" y="828" type="line"/>
      <point x="143" y="820" type="line"/>
      <point x="131" y="812" type="line"/>
      <point x="120" y="803" type="line"/>
      <point x="110" y="793" type="line"/>
      <point x="104" y="787" type="line" smooth="yes"/>
      <point x="103" y="786"/>
      <point x="101" y="784"/>
      <point x="101" y="783" type="curve" smooth="yes"/>
      <point x="92" y="773" type="line"/>
      <point x="85" y="762" type="line"/>
      <point x="79" y="751" type="line"/>
      <point x="73" y="741" type="line"/>
      <point x="69" y="730" type="line"/>
      <point x="64" y="719" type="line"/>
      <point x="61" y="708" type="line"/>
      <point x="58" y="697" type="line"/>
      <point x="56" y="687" type="line"/>
      <point x="54" y="677" type="line"/>
      <point x="53" y="667" type="line"/>
      <point x="52" y="657" type="line"/>
      <point x="51" y="648" type="line"/>
      <point x="51" y="639" type="line"/>
      <point x="50" y="630" type="line"/>
      <point x="50" y="622" type="line"/>
      <point x="50" y="615" type="line"/>
      <point x="50" y="608" type="line"/>
      <point x="50" y="601" type="line"/>
      <point x="50" y="201" type="line"/>
      <point x="50" y="194" type="line"/>
      <point x="50" y="187" type="line"/>
      <point x="50" y="179" type="line"/>
      <point x="50" y="171" type="line"/>
      <point x="51" y="162" type="line"/>
      <point x="51" y="153" type="line"/>
      <point x="52" y="143" type="line"/>
      <point x="53" y="133" type="line"/>
      <point x="55" y="123" type="line"/>
      <point x="57" y="113" type="line"/>
      <point x="59" y="102" type="line"/>
      <point x="62" y="91" type="line"/>
      <point x="66" y="80" type="line"/>
      <point x="70" y="69" type="line"/>
      <point x="75" y="58" type="line"/>
      <point x="81" y="47" type="line"/>
      <point x="87" y="36" type="line"/>
      <point x="95" y="26" type="line"/>
      <point x="101" y="19" type="line" smooth="yes"/>
      <point x="101" y="18"/>
      <point x="103" y="16"/>
      <point x="104" y="15" type="curve" smooth="yes"/>
      <point x="113" y="5" type="line"/>
      <point x="123" y="-4" type="line"/>
      <point x="135" y="-13" type="line"/>
      <point x="147" y="-21" type="line"/>
      <point x="160" y="-28" type="line"/>
      <point x="173" y="-34" type="line"/>
      <point x="188" y="-40" type="line"/>
      <point x="203" y="-45" type="line"/>
      <point x="219" y="-49" type="line"/>
      <point x="236" y="-53" type="line"/>
      <point x="253" y="-56" type="line"/>
      <point x="272" y="-58" type="line"/>
      <point x="291" y="-59" type="line"/>
      <point x="310" y="-59" type="line"/>
    </contour>
    <contour>
      <point x="516" y="61" type="line"/>
      <point x="310" y="61" type="line"/>
      <point x="293" y="61" type="line"/>
      <point x="279" y="62" type="line"/>
      <point x="266" y="64" type="line"/>
      <point x="254" y="66" type="line"/>
      <point x="244" y="68" type="line"/>
      <point x="234" y="71" type="line"/>
      <point x="226" y="74" type="line"/>
      <point x="219" y="77" type="line"/>
      <point x="212" y="80" type="line"/>
      <point x="207" y="83" type="line"/>
      <point x="202" y="87" type="line"/>
      <point x="198" y="90" type="line"/>
      <point x="194" y="94" type="line"/>
      <point x="194" y="94" type="line"/>
      <point x="188" y="101" type="line"/>
      <point x="186" y="105" type="line"/>
      <point x="183" y="109" type="line"/>
      <point x="181" y="113" type="line"/>
      <point x="180" y="118" type="line"/>
      <point x="178" y="123" type="line"/>
      <point x="176" y="128" type="line"/>
      <point x="175" y="133" type="line"/>
      <point x="174" y="139" type="line"/>
      <point x="173" y="144" type="line"/>
      <point x="172" y="150" type="line"/>
      <point x="171" y="156" type="line"/>
      <point x="171" y="163" type="line"/>
      <point x="170" y="169" type="line"/>
      <point x="170" y="175" type="line"/>
      <point x="170" y="182" type="line"/>
      <point x="170" y="188" type="line"/>
      <point x="170" y="195" type="line"/>
      <point x="170" y="201" type="line"/>
      <point x="170" y="367" type="line"/>
      <point x="184" y="361" type="line"/>
      <point x="200" y="356" type="line"/>
      <point x="216" y="351" type="line"/>
      <point x="233" y="348" type="line"/>
      <point x="251" y="345" type="line"/>
      <point x="269" y="343" type="line"/>
      <point x="289" y="341" type="line"/>
      <point x="309" y="341" type="line" smooth="yes"/>
      <point x="309" y="341"/>
      <point x="310" y="341"/>
      <point x="310" y="341" type="curve" smooth="yes"/>
      <point x="509" y="341" type="line"/>
      <point x="527" y="341" type="line"/>
      <point x="541" y="340" type="line"/>
      <point x="554" y="338" type="line"/>
      <point x="566" y="336" type="line"/>
      <point x="576" y="334" type="line"/>
      <point x="586" y="331" type="line"/>
      <point x="594" y="328" type="line"/>
      <point x="601" y="325" type="line"/>
      <point x="608" y="322" type="line"/>
      <point x="613" y="319" type="line"/>
      <point x="618" y="315" type="line"/>
      <point x="622" y="312" type="line"/>
      <point x="626" y="308" type="line"/>
      <point x="626" y="308" type="line"/>
      <point x="632" y="301" type="line"/>
      <point x="634" y="297" type="line"/>
      <point x="637" y="293" type="line"/>
      <point x="639" y="289" type="line"/>
      <point x="640" y="284" type="line"/>
      <point x="642" y="279" type="line"/>
      <point x="644" y="274" type="line"/>
      <point x="645" y="269" type="line"/>
      <point x="646" y="263" type="line"/>
      <point x="647" y="258" type="line"/>
      <point x="648" y="252" type="line"/>
      <point x="649" y="246" type="line"/>
      <point x="649" y="239" type="line"/>
      <point x="650" y="233" type="line"/>
      <point x="650" y="227" type="line"/>
      <point x="650" y="220" type="line"/>
      <point x="650" y="214" type="line"/>
      <point x="650" y="207" type="line"/>
      <point x="650" y="201" type="line"/>
      <point x="650" y="184" type="line"/>
      <point x="649" y="170" type="line"/>
      <point x="647" y="157" type="line"/>
      <point x="645" y="145" type="line"/>
      <point x="643" y="135" type="line"/>
      <point x="640" y="125" type="line"/>
      <point x="637" y="117" type="line"/>
      <point x="634" y="110" type="line"/>
      <point x="631" y="103" type="line"/>
      <point x="628" y="98" type="line"/>
      <point x="624" y="93" type="line"/>
      <point x="621" y="89" type="line"/>
      <point x="617" y="85" type="line"/>
      <point x="617" y="85" type="line"/>
      <point x="610" y="79" type="line"/>
      <point x="606" y="77" type="line"/>
      <point x="602" y="74" type="line"/>
      <point x="598" y="72" type="line"/>
      <point x="593" y="71" type="line"/>
      <point x="588" y="69" type="line"/>
      <point x="583" y="67" type="line"/>
      <point x="578" y="66" type="line"/>
      <point x="572" y="65" type="line"/>
      <point x="567" y="64" type="line"/>
      <point x="561" y="63" type="line"/>
      <point x="555" y="62" type="line"/>
      <point x="548" y="62" type="line"/>
      <point x="542" y="61" type="line"/>
      <point x="536" y="61" type="line"/>
      <point x="529" y="61" type="line"/>
      <point x="523" y="61" type="line"/>
    </contour>
  </outline>
</glyph>
<glyph name="seven" format="1">
  <advance width="819"/>
  <unicode hex="0037"/>
  <outline>
    <contour>
      <point x="360" y="-36" type="curve" smooth="yes"/>
      <point x="753" y="555" type="line"/>
      <point x="759" y="564" type="line" smooth="yes"/>
      <point x="765" y="572"/>
      <point x="769" y="587"/>
      <point x="769" y="597" type="curve" smooth="yes"/>
      <point x="769" y="604" type="line"/>
      <point x="769" y="611" type="line"/>
      <point x="769" y="618" type="line"/>
      <point x="769" y="626" type="line"/>
      <point x="768" y="635" type="line"/>
      <point x="768" y="644" type="line"/>
      <point x="767" y="653" type="line"/>
      <point x="766" y="663" type="line"/>
      <point x="765" y="673" type="line"/>
      <point x="763" y="683" type="line"/>
      <point x="761" y="693" type="line"/>
      <point x="758" y="704" type="line"/>
      <point x="755" y="714" type="line"/>
      <point x="751" y="725" type="line"/>
      <point x="746" y="736" type="line"/>
      <point x="741" y="747" type="line"/>
      <point x="734" y="758" type="line"/>
      <point x="727" y="769" type="line"/>
      <point x="719" y="779" type="line" smooth="yes"/>
      <point x="718" y="780"/>
      <point x="717" y="782"/>
      <point x="716" y="783" type="curve" smooth="yes"/>
      <point x="710" y="789" type="line"/>
      <point x="699" y="799" type="line"/>
      <point x="688" y="808" type="line"/>
      <point x="676" y="816" type="line"/>
      <point x="663" y="824" type="line"/>
      <point x="650" y="831" type="line"/>
      <point x="635" y="837" type="line"/>
      <point x="620" y="842" type="line"/>
      <point x="603" y="847" type="line"/>
      <point x="586" y="850" type="line"/>
      <point x="569" y="853" type="line"/>
      <point x="550" y="855" type="line"/>
      <point x="531" y="857" type="line"/>
      <point x="510" y="857" type="line"/>
      <point x="499" y="857" type="line"/>
      <point x="110" y="857" type="line" smooth="yes"/>
      <point x="78" y="857"/>
      <point x="50" y="829"/>
      <point x="50" y="797" type="curve" smooth="yes"/>
      <point x="50" y="765"/>
      <point x="78" y="737"/>
      <point x="110" y="737" type="curve" smooth="yes"/>
      <point x="499" y="737" type="line"/>
      <point x="508" y="737" type="line"/>
      <point x="523" y="737" type="line"/>
      <point x="537" y="736" type="line"/>
      <point x="550" y="735" type="line"/>
      <point x="562" y="733" type="line"/>
      <point x="572" y="731" type="line"/>
      <point x="581" y="728" type="line"/>
      <point x="590" y="726" type="line"/>
      <point x="597" y="723" type="line"/>
      <point x="603" y="720" type="line"/>
      <point x="609" y="717" type="line"/>
      <point x="614" y="714" type="line"/>
      <point x="618" y="711" type="line"/>
      <point x="622" y="707" type="line"/>
      <point x="628" y="701" type="line"/>
      <point x="629" y="700" type="line"/>
      <point x="631" y="697" type="line"/>
      <point x="634" y="692" type="line"/>
      <point x="636" y="688" type="line"/>
      <point x="638" y="683" type="line"/>
      <point x="640" y="678" type="line"/>
      <point x="642" y="673" type="line"/>
      <point x="644" y="668" type="line"/>
      <point x="645" y="662" type="line"/>
      <point x="646" y="656" type="line"/>
      <point x="647" y="650" type="line"/>
      <point x="648" y="643" type="line"/>
      <point x="648" y="637" type="line"/>
      <point x="649" y="630" type="line"/>
      <point x="649" y="624" type="line"/>
      <point x="649" y="617" type="line"/>
      <point x="649" y="615" type="line"/>
      <point x="266" y="39" type="line"/>
      <point x="260" y="30" type="line" smooth="yes"/>
      <point x="242" y="3"/>
      <point x="250" y="-35"/>
      <point x="277" y="-53" type="curve" smooth="yes"/>
      <point x="304" y="-71"/>
      <point x="342" y="-63"/>
    </contour>
  </outline>
</glyph>
<glyph name="eight" format="1">
  <advance width="820"/>
  <unicode hex="0038"/>
  <outline>
    <contour>
      <point x="310" y="-60" type="line"/>
      <point x="517" y="-60" type="line"/>
      <point x="524" y="-60" type="line"/>
      <point x="532" y="-60" type="line"/>
      <point x="540" y="-60" type="line"/>
      <point x="549" y="-59" type="line"/>
      <point x="558" y="-59" type="line"/>
      <point x="568" y="-58" type="line"/>
      <point x="578" y="-57" type="line"/>
      <point x="588" y="-55" type="line"/>
      <point x="598" y="-53" type="line"/>
      <point x="609" y="-51" type="line"/>
      <point x="620" y="-48" type="line"/>
      <point x="631" y="-44" type="line"/>
      <point x="642" y="-40" type="line"/>
      <point x="653" y="-35" type="line"/>
      <point x="664" y="-29" type="line"/>
      <point x="675" y="-23" type="line"/>
      <point x="685" y="-15" type="line"/>
      <point x="692" y="-9" type="line" smooth="yes"/>
      <point x="693" y="-9"/>
      <point x="695" y="-7"/>
      <point x="696" y="-6" type="curve" smooth="yes"/>
      <point x="706" y="3" type="line"/>
      <point x="715" y="13" type="line"/>
      <point x="724" y="25" type="line"/>
      <point x="732" y="37" type="line"/>
      <point x="739" y="50" type="line"/>
      <point x="745" y="63" type="line"/>
      <point x="751" y="78" type="line"/>
      <point x="756" y="93" type="line"/>
      <point x="760" y="109" type="line"/>
      <point x="764" y="126" type="line"/>
      <point x="767" y="143" type="line"/>
      <point x="769" y="162" type="line"/>
      <point x="770" y="181" type="line"/>
      <point x="770" y="200" type="line"/>
      <point x="770" y="207" type="line"/>
      <point x="770" y="214" type="line"/>
      <point x="770" y="222" type="line"/>
      <point x="770" y="230" type="line"/>
      <point x="769" y="239" type="line"/>
      <point x="769" y="248" type="line"/>
      <point x="768" y="258" type="line"/>
      <point x="767" y="268" type="line"/>
      <point x="765" y="278" type="line"/>
      <point x="763" y="288" type="line"/>
      <point x="761" y="299" type="line"/>
      <point x="758" y="310" type="line"/>
      <point x="754" y="321" type="line"/>
      <point x="750" y="332" type="line"/>
      <point x="745" y="343" type="line"/>
      <point x="739" y="354" type="line"/>
      <point x="733" y="365" type="line"/>
      <point x="725" y="375" type="line"/>
      <point x="719" y="382" type="line" smooth="yes"/>
      <point x="719" y="383"/>
      <point x="717" y="385"/>
      <point x="716" y="386" type="curve" smooth="yes"/>
      <point x="707" y="396" type="line"/>
      <point x="702" y="400" type="line"/>
      <point x="702" y="400" type="line"/>
      <point x="712" y="410" type="line"/>
      <point x="721" y="421" type="line"/>
      <point x="729" y="433" type="line"/>
      <point x="737" y="446" type="line"/>
      <point x="744" y="460" type="line"/>
      <point x="750" y="474" type="line"/>
      <point x="755" y="490" type="line"/>
      <point x="760" y="506" type="line"/>
      <point x="763" y="523" type="line"/>
      <point x="766" y="541" type="line"/>
      <point x="768" y="559" type="line"/>
      <point x="770" y="579" type="line"/>
      <point x="770" y="599" type="line"/>
      <point x="770" y="607" type="line"/>
      <point x="770" y="614" type="line"/>
      <point x="770" y="621" type="line"/>
      <point x="770" y="629" type="line"/>
      <point x="769" y="638" type="line"/>
      <point x="769" y="647" type="line"/>
      <point x="768" y="656" type="line"/>
      <point x="767" y="666" type="line"/>
      <point x="766" y="676" type="line"/>
      <point x="764" y="686" type="line"/>
      <point x="762" y="696" type="line"/>
      <point x="759" y="707" type="line"/>
      <point x="756" y="718" type="line"/>
      <point x="751" y="729" type="line"/>
      <point x="747" y="740" type="line"/>
      <point x="741" y="750" type="line"/>
      <point x="735" y="761" type="line"/>
      <point x="728" y="772" type="line"/>
      <point x="719" y="782" type="line" smooth="yes"/>
      <point x="719" y="783"/>
      <point x="717" y="785"/>
      <point x="716" y="786" type="curve" smooth="yes"/>
      <point x="710" y="792" type="line"/>
      <point x="700" y="802" type="line"/>
      <point x="689" y="811" type="line"/>
      <point x="677" y="819" type="line"/>
      <point x="664" y="827" type="line"/>
      <point x="650" y="834" type="line"/>
      <point x="636" y="840" type="line"/>
      <point x="620" y="845" type="line"/>
      <point x="604" y="850" type="line"/>
      <point x="587" y="853" type="line"/>
      <point x="569" y="856" type="line"/>
      <point x="551" y="858" type="line"/>
      <point x="531" y="860" type="line"/>
      <point x="511" y="860" type="line"/>
      <point x="500" y="860" type="line"/>
      <point x="303" y="860" type="line"/>
      <point x="296" y="860" type="line"/>
      <point x="289" y="860" type="line"/>
      <point x="281" y="860" type="line"/>
      <point x="272" y="859" type="line"/>
      <point x="263" y="859" type="line"/>
      <point x="254" y="858" type="line"/>
      <point x="244" y="857" type="line"/>
      <point x="234" y="856" type="line"/>
      <point x="224" y="854" type="line"/>
      <point x="214" y="852" type="line"/>
      <point x="203" y="849" type="line"/>
      <point x="192" y="846" type="line"/>
      <point x="181" y="841" type="line"/>
      <point x="170" y="837" type="line"/>
      <point x="160" y="831" type="line"/>
      <point x="149" y="825" type="line"/>
      <point x="138" y="818" type="line"/>
      <point x="128" y="809" type="line" smooth="yes"/>
      <point x="127" y="809"/>
      <point x="125" y="807"/>
      <point x="124" y="806" type="curve" smooth="yes"/>
      <point x="118" y="800" type="line"/>
      <point x="108" y="790" type="line"/>
      <point x="99" y="779" type="line"/>
      <point x="91" y="767" type="line"/>
      <point x="83" y="754" type="line"/>
      <point x="76" y="740" type="line"/>
      <point x="70" y="726" type="line"/>
      <point x="65" y="710" type="line"/>
      <point x="60" y="694" type="line"/>
      <point x="57" y="677" type="line"/>
      <point x="54" y="659" type="line"/>
      <point x="52" y="641" type="line"/>
      <point x="50" y="621" type="line"/>
      <point x="50" y="601" type="line"/>
      <point x="50" y="593" type="line"/>
      <point x="50" y="586" type="line"/>
      <point x="50" y="579" type="line"/>
      <point x="50" y="571" type="line"/>
      <point x="51" y="562" type="line"/>
      <point x="51" y="553" type="line"/>
      <point x="52" y="544" type="line"/>
      <point x="53" y="534" type="line"/>
      <point x="54" y="524" type="line"/>
      <point x="56" y="514" type="line"/>
      <point x="58" y="504" type="line"/>
      <point x="61" y="493" type="line"/>
      <point x="64" y="482" type="line"/>
      <point x="69" y="471" type="line"/>
      <point x="73" y="460" type="line"/>
      <point x="79" y="450" type="line"/>
      <point x="85" y="439" type="line"/>
      <point x="92" y="428" type="line"/>
      <point x="101" y="418" type="line" smooth="yes"/>
      <point x="101" y="417"/>
      <point x="103" y="415"/>
      <point x="104" y="414" type="curve" smooth="yes"/>
      <point x="110" y="408" type="line"/>
      <point x="118" y="400" type="line"/>
      <point x="114" y="397" type="line"/>
      <point x="105" y="387" type="line"/>
      <point x="96" y="375" type="line"/>
      <point x="88" y="363" type="line"/>
      <point x="81" y="350" type="line"/>
      <point x="75" y="337" type="line"/>
      <point x="69" y="322" type="line"/>
      <point x="64" y="307" type="line"/>
      <point x="60" y="291" type="line"/>
      <point x="56" y="274" type="line"/>
      <point x="53" y="257" type="line"/>
      <point x="51" y="238" type="line"/>
      <point x="50" y="219" type="line"/>
      <point x="50" y="200" type="line"/>
      <point x="50" y="193" type="line"/>
      <point x="50" y="186" type="line"/>
      <point x="50" y="178" type="line"/>
      <point x="50" y="170" type="line"/>
      <point x="51" y="161" type="line"/>
      <point x="51" y="152" type="line"/>
      <point x="52" y="142" type="line"/>
      <point x="53" y="132" type="line"/>
      <point x="55" y="122" type="line"/>
      <point x="57" y="112" type="line"/>
      <point x="59" y="101" type="line"/>
      <point x="62" y="90" type="line"/>
      <point x="66" y="79" type="line"/>
      <point x="70" y="68" type="line"/>
      <point x="75" y="57" type="line"/>
      <point x="81" y="46" type="line"/>
      <point x="87" y="35" type="line"/>
      <point x="95" y="25" type="line"/>
      <point x="101" y="18" type="line" smooth="yes"/>
      <point x="101" y="17"/>
      <point x="103" y="15"/>
      <point x="104" y="14" type="curve" smooth="yes"/>
      <point x="113" y="4" type="line"/>
      <point x="123" y="-5" type="line"/>
      <point x="135" y="-14" type="line"/>
      <point x="147" y="-22" type="line"/>
      <point x="160" y="-29" type="line"/>
      <point x="173" y="-35" type="line"/>
      <point x="188" y="-41" type="line"/>
      <point x="203" y="-46" type="line"/>
      <point x="219" y="-50" type="line"/>
      <point x="236" y="-54" type="line"/>
      <point x="253" y="-57" type="line"/>
      <point x="272" y="-59" type="line"/>
      <point x="291" y="-60" type="line"/>
    </contour>
    <contour>
      <point x="510" y="460" type="line" smooth="yes"/>
      <point x="310" y="460" type="line"/>
      <point x="296" y="460" type="line"/>
      <point x="282" y="461" type="line"/>
      <point x="269" y="462" type="line"/>
      <point x="258" y="464" type="line"/>
      <point x="247" y="466" type="line"/>
      <point x="238" y="469" type="line"/>
      <point x="230" y="471" type="line"/>
      <point x="222" y="474" type="line"/>
      <point x="216" y="477" type="line"/>
      <point x="211" y="480" type="line"/>
      <point x="206" y="483" type="line"/>
      <point x="201" y="486" type="line"/>
      <point x="197" y="490" type="line"/>
      <point x="191" y="496" type="line"/>
      <point x="191" y="497" type="line"/>
      <point x="188" y="501" type="line"/>
      <point x="185" y="505" type="line"/>
      <point x="183" y="509" type="line"/>
      <point x="181" y="514" type="line"/>
      <point x="179" y="519" type="line"/>
      <point x="177" y="524" type="line"/>
      <point x="176" y="530" type="line"/>
      <point x="174" y="535" type="line"/>
      <point x="173" y="541" type="line"/>
      <point x="172" y="547" type="line"/>
      <point x="171" y="554" type="line"/>
      <point x="171" y="560" type="line"/>
      <point x="171" y="567" type="line"/>
      <point x="170" y="573" type="line"/>
      <point x="170" y="580" type="line"/>
      <point x="170" y="587" type="line"/>
      <point x="170" y="593" type="line"/>
      <point x="170" y="599" type="line"/>
      <point x="170" y="614" type="line"/>
      <point x="171" y="628" type="line"/>
      <point x="172" y="641" type="line"/>
      <point x="174" y="652" type="line"/>
      <point x="176" y="663" type="line"/>
      <point x="179" y="672" type="line"/>
      <point x="181" y="680" type="line"/>
      <point x="184" y="688" type="line"/>
      <point x="187" y="694" type="line"/>
      <point x="190" y="699" type="line"/>
      <point x="193" y="704" type="line"/>
      <point x="196" y="709" type="line"/>
      <point x="200" y="713" type="line"/>
      <point x="206" y="719" type="line"/>
      <point x="207" y="719" type="line"/>
      <point x="211" y="722" type="line"/>
      <point x="215" y="725" type="line"/>
      <point x="219" y="727" type="line"/>
      <point x="224" y="729" type="line"/>
      <point x="229" y="731" type="line"/>
      <point x="234" y="733" type="line"/>
      <point x="240" y="734" type="line"/>
      <point x="245" y="736" type="line"/>
      <point x="251" y="737" type="line"/>
      <point x="257" y="738" type="line"/>
      <point x="264" y="739" type="line"/>
      <point x="270" y="739" type="line"/>
      <point x="277" y="739" type="line"/>
      <point x="283" y="740" type="line"/>
      <point x="290" y="740" type="line"/>
      <point x="297" y="740" type="line"/>
      <point x="303" y="740" type="line"/>
      <point x="500" y="740" type="line"/>
      <point x="509" y="740" type="line"/>
      <point x="524" y="740" type="line"/>
      <point x="538" y="739" type="line"/>
      <point x="551" y="738" type="line"/>
      <point x="562" y="736" type="line"/>
      <point x="573" y="734" type="line"/>
      <point x="582" y="731" type="line"/>
      <point x="590" y="729" type="line"/>
      <point x="598" y="726" type="line"/>
      <point x="604" y="723" type="line"/>
      <point x="609" y="720" type="line"/>
      <point x="614" y="717" type="line"/>
      <point x="619" y="714" type="line"/>
      <point x="623" y="710" type="line"/>
      <point x="629" y="704" type="line"/>
      <point x="629" y="703" type="line"/>
      <point x="632" y="699" type="line"/>
      <point x="635" y="695" type="line"/>
      <point x="637" y="691" type="line"/>
      <point x="639" y="686" type="line"/>
      <point x="641" y="681" type="line"/>
      <point x="643" y="676" type="line"/>
      <point x="644" y="670" type="line"/>
      <point x="646" y="665" type="line"/>
      <point x="647" y="659" type="line"/>
      <point x="648" y="653" type="line"/>
      <point x="649" y="646" type="line"/>
      <point x="649" y="640" type="line"/>
      <point x="649" y="633" type="line"/>
      <point x="650" y="627" type="line"/>
      <point x="650" y="620" type="line"/>
      <point x="650" y="613" type="line"/>
      <point x="650" y="607" type="line"/>
      <point x="650" y="601" type="line"/>
      <point x="650" y="586" type="line"/>
      <point x="649" y="572" type="line"/>
      <point x="648" y="559" type="line"/>
      <point x="646" y="548" type="line"/>
      <point x="644" y="537" type="line"/>
      <point x="641" y="528" type="line"/>
      <point x="639" y="520" type="line"/>
      <point x="636" y="512" type="line"/>
      <point x="633" y="506" type="line"/>
      <point x="630" y="501" type="line"/>
      <point x="627" y="496" type="line"/>
      <point x="624" y="491" type="line"/>
      <point x="620" y="487" type="line"/>
      <point x="614" y="481" type="line"/>
      <point x="613" y="481" type="line"/>
      <point x="609" y="478" type="line"/>
      <point x="605" y="475" type="line"/>
      <point x="601" y="473" type="line"/>
      <point x="596" y="471" type="line"/>
      <point x="591" y="469" type="line"/>
      <point x="586" y="467" type="line"/>
      <point x="580" y="466" type="line"/>
      <point x="575" y="464" type="line"/>
      <point x="569" y="463" type="line"/>
      <point x="563" y="462" type="line"/>
      <point x="556" y="461" type="line"/>
      <point x="550" y="461" type="line"/>
      <point x="543" y="461" type="line"/>
      <point x="537" y="460" type="line"/>
      <point x="530" y="460" type="line"/>
      <point x="523" y="460" type="line"/>
      <point x="517" y="460" type="line"/>
    </contour>
    <contour>
      <point x="516" y="60" type="line"/>
      <point x="310" y="60" type="line"/>
      <point x="293" y="60" type="line"/>
      <point x="279" y="61" type="line"/>
      <point x="266" y="63" type="line"/>
      <point x="254" y="65" type="line"/>
      <point x="244" y="67" type="line"/>
      <point x="234" y="70" type="line"/>
      <point x="226" y="73" type="line"/>
      <point x="219" y="76" type="line"/>
      <point x="212" y="79" type="line"/>
      <point x="207" y="82" type="line"/>
      <point x="202" y="86" type="line"/>
      <point x="198" y="89" type="line"/>
      <point x="194" y="93" type="line"/>
      <point x="194" y="93" type="line"/>
      <point x="188" y="100" type="line"/>
      <point x="186" y="104" type="line"/>
      <point x="183" y="108" type="line"/>
      <point x="181" y="112" type="line"/>
      <point x="180" y="117" type="line"/>
      <point x="178" y="122" type="line"/>
      <point x="176" y="127" type="line"/>
      <point x="175" y="132" type="line"/>
      <point x="174" y="138" type="line"/>
      <point x="173" y="143" type="line"/>
      <point x="172" y="149" type="line"/>
      <point x="171" y="155" type="line"/>
      <point x="171" y="162" type="line"/>
      <point x="170" y="168" type="line"/>
      <point x="170" y="174" type="line"/>
      <point x="170" y="181" type="line"/>
      <point x="170" y="187" type="line"/>
      <point x="170" y="194" type="line"/>
      <point x="170" y="200" type="line"/>
      <point x="170" y="217" type="line"/>
      <point x="171" y="231" type="line"/>
      <point x="173" y="244" type="line"/>
      <point x="175" y="256" type="line"/>
      <point x="177" y="266" type="line"/>
      <point x="180" y="276" type="line"/>
      <point x="183" y="284" type="line"/>
      <point x="186" y="291" type="line"/>
      <point x="189" y="298" type="line"/>
      <point x="192" y="303" type="line"/>
      <point x="196" y="308" type="line"/>
      <point x="199" y="312" type="line"/>
      <point x="203" y="316" type="line"/>
      <point x="203" y="316" type="line"/>
      <point x="210" y="322" type="line"/>
      <point x="214" y="324" type="line"/>
      <point x="218" y="327" type="line"/>
      <point x="222" y="329" type="line"/>
      <point x="227" y="330" type="line"/>
      <point x="232" y="332" type="line"/>
      <point x="237" y="334" type="line"/>
      <point x="242" y="335" type="line"/>
      <point x="248" y="336" type="line"/>
      <point x="253" y="337" type="line"/>
      <point x="259" y="338" type="line"/>
      <point x="265" y="339" type="line"/>
      <point x="272" y="339" type="line"/>
      <point x="278" y="340" type="line"/>
      <point x="284" y="340" type="line"/>
      <point x="291" y="340" type="line"/>
      <point x="297" y="340" type="line"/>
      <point x="304" y="340" type="line"/>
      <point x="310" y="340" type="line"/>
      <point x="310" y="340" type="line" smooth="yes"/>
      <point x="509" y="340" type="line"/>
      <point x="527" y="340" type="line"/>
      <point x="541" y="339" type="line"/>
      <point x="554" y="337" type="line"/>
      <point x="566" y="335" type="line"/>
      <point x="576" y="333" type="line"/>
      <point x="586" y="330" type="line"/>
      <point x="594" y="327" type="line"/>
      <point x="601" y="324" type="line"/>
      <point x="608" y="321" type="line"/>
      <point x="613" y="318" type="line"/>
      <point x="618" y="314" type="line"/>
      <point x="622" y="311" type="line"/>
      <point x="626" y="307" type="line"/>
      <point x="626" y="307" type="line"/>
      <point x="632" y="300" type="line"/>
      <point x="634" y="296" type="line"/>
      <point x="637" y="292" type="line"/>
      <point x="639" y="288" type="line"/>
      <point x="640" y="283" type="line"/>
      <point x="642" y="278" type="line"/>
      <point x="644" y="273" type="line"/>
      <point x="645" y="268" type="line"/>
      <point x="646" y="262" type="line"/>
      <point x="647" y="257" type="line"/>
      <point x="648" y="251" type="line"/>
      <point x="649" y="245" type="line"/>
      <point x="649" y="238" type="line"/>
      <point x="650" y="232" type="line"/>
      <point x="650" y="226" type="line"/>
      <point x="650" y="219" type="line"/>
      <point x="650" y="213" type="line"/>
      <point x="650" y="206" type="line"/>
      <point x="650" y="200" type="line"/>
      <point x="650" y="183" type="line"/>
      <point x="649" y="169" type="line"/>
      <point x="647" y="156" type="line"/>
      <point x="645" y="144" type="line"/>
      <point x="643" y="134" type="line"/>
      <point x="640" y="124" type="line"/>
      <point x="637" y="116" type="line"/>
      <point x="634" y="109" type="line"/>
      <point x="631" y="102" type="line"/>
      <point x="628" y="97" type="line"/>
      <point x="624" y="92" type="line"/>
      <point x="621" y="88" type="line"/>
      <point x="617" y="84" type="line"/>
      <point x="617" y="84" type="line"/>
      <point x="610" y="78" type="line"/>
      <point x="606" y="76" type="line"/>
      <point x="602" y="73" type="line"/>
      <point x="598" y="71" type="line"/>
      <point x="593" y="70" type="line"/>
      <point x="588" y="68" type="line"/>
      <point x="583" y="66" type="line"/>
      <point x="578" y="65" type="line"/>
      <point x="572" y="64" type="line"/>
      <point x="567" y="63" type="line"/>
      <point x="561" y="62" type="line"/>
      <point x="555" y="61" type="line"/>
      <point x="548" y="61" type="line"/>
      <point x="542" y="60" type="line"/>
      <point x="536" y="60" type="line"/>
      <point x="529" y="60" type="line"/>
      <point x="523" y="60" type="line"/>
    </contour>
  </outline>
</glyph>
<glyph name="nine" format="1">
  <advance width="820"/>
  <unicode hex="0039"/>
  <outline>
    <contour>
      <point x="636" y="440" type="line"/>
      <point x="620" y="445" type="line"/>
      <point x="604" y="450" type="line"/>
      <point x="587" y="453" type="line"/>
      <point x="569" y="456" type="line"/>
      <point x="551" y="458" type="line"/>
      <point x="531" y="460" type="line"/>
      <point x="511" y="460" type="line"/>
      <point x="500" y="460" type="line"/>
      <point x="310" y="460" type="line"/>
      <point x="293" y="460" type="line"/>
      <point x="279" y="461" type="line"/>
      <point x="266" y="463" type="line"/>
      <point x="254" y="465" type="line"/>
      <point x="244" y="467" type="line"/>
      <point x="234" y="470" type="line"/>
      <point x="226" y="473" type="line"/>
      <point x="219" y="476" type="line"/>
      <point x="212" y="479" type="line"/>
      <point x="207" y="482" type="line"/>
      <point x="202" y="486" type="line"/>
      <point x="198" y="489" type="line"/>
      <point x="194" y="493" type="line"/>
      <point x="194" y="493" type="line"/>
      <point x="188" y="500" type="line"/>
      <point x="186" y="504" type="line"/>
      <point x="183" y="508" type="line"/>
      <point x="181" y="512" type="line"/>
      <point x="180" y="517" type="line"/>
      <point x="178" y="522" type="line"/>
      <point x="176" y="527" type="line"/>
      <point x="175" y="532" type="line"/>
      <point x="174" y="538" type="line"/>
      <point x="173" y="543" type="line"/>
      <point x="172" y="549" type="line"/>
      <point x="171" y="555" type="line"/>
      <point x="171" y="562" type="line"/>
      <point x="170" y="568" type="line"/>
      <point x="170" y="574" type="line"/>
      <point x="170" y="581" type="line"/>
      <point x="170" y="587" type="line"/>
      <point x="170" y="594" type="line"/>
      <point x="170" y="600" type="line"/>
      <point x="170" y="617" type="line"/>
      <point x="171" y="631" type="line"/>
      <point x="173" y="644" type="line"/>
      <point x="175" y="656" type="line"/>
      <point x="177" y="666" type="line"/>
      <point x="180" y="676" type="line"/>
      <point x="183" y="684" type="line"/>
      <point x="186" y="691" type="line"/>
      <point x="189" y="698" type="line"/>
      <point x="192" y="703" type="line"/>
      <point x="196" y="708" type="line"/>
      <point x="199" y="712" type="line"/>
      <point x="203" y="716" type="line"/>
      <point x="203" y="716" type="line"/>
      <point x="210" y="722" type="line"/>
      <point x="214" y="724" type="line"/>
      <point x="218" y="727" type="line"/>
      <point x="222" y="729" type="line"/>
      <point x="227" y="730" type="line"/>
      <point x="232" y="732" type="line"/>
      <point x="237" y="734" type="line"/>
      <point x="242" y="735" type="line"/>
      <point x="248" y="736" type="line"/>
      <point x="253" y="737" type="line"/>
      <point x="259" y="738" type="line"/>
      <point x="265" y="739" type="line"/>
      <point x="272" y="739" type="line"/>
      <point x="278" y="740" type="line"/>
      <point x="284" y="740" type="line"/>
      <point x="291" y="740" type="line"/>
      <point x="297" y="740" type="line"/>
      <point x="304" y="740" type="line"/>
      <point x="509" y="740" type="line"/>
      <point x="527" y="740" type="line"/>
      <point x="541" y="739" type="line"/>
      <point x="554" y="737" type="line"/>
      <point x="566" y="735" type="line"/>
      <point x="576" y="733" type="line"/>
      <point x="586" y="730" type="line"/>
      <point x="594" y="727" type="line"/>
      <point x="601" y="724" type="line"/>
      <point x="608" y="721" type="line"/>
      <point x="613" y="718" type="line"/>
      <point x="618" y="714" type="line"/>
      <point x="622" y="711" type="line"/>
      <point x="626" y="707" type="line"/>
      <point x="626" y="707" type="line"/>
      <point x="632" y="700" type="line"/>
      <point x="634" y="696" type="line"/>
      <point x="637" y="692" type="line"/>
      <point x="639" y="688" type="line"/>
      <point x="640" y="683" type="line"/>
      <point x="642" y="678" type="line"/>
      <point x="644" y="673" type="line"/>
      <point x="645" y="668" type="line"/>
      <point x="646" y="662" type="line"/>
      <point x="647" y="657" type="line"/>
      <point x="648" y="651" type="line"/>
      <point x="649" y="645" type="line"/>
      <point x="649" y="638" type="line"/>
      <point x="650" y="632" type="line"/>
      <point x="650" y="626" type="line"/>
      <point x="650" y="619" type="line"/>
      <point x="650" y="613" type="line"/>
      <point x="650" y="606" type="line"/>
      <point x="650" y="600" type="line"/>
      <point x="650" y="434" type="line"/>
    </contour>
    <contour>
      <point x="500" y="-60" type="line"/>
      <point x="511" y="-60" type="line"/>
      <point x="531" y="-60" type="line"/>
      <point x="551" y="-58" type="line"/>
      <point x="569" y="-56" type="line"/>
      <point x="587" y="-53" type="line"/>
      <point x="604" y="-50" type="line"/>
      <point x="620" y="-45" type="line"/>
      <point x="636" y="-40" type="line"/>
      <point x="650" y="-34" type="line"/>
      <point x="664" y="-27" type="line"/>
      <point x="677" y="-19" type="line"/>
      <point x="689" y="-11" type="line"/>
      <point x="700" y="-2" type="line"/>
      <point x="710" y="8" type="line"/>
      <point x="716" y="14" type="line" smooth="yes"/>
      <point x="717" y="15"/>
      <point x="719" y="17"/>
      <point x="719" y="18" type="curve" smooth="yes"/>
      <point x="728" y="28" type="line"/>
      <point x="735" y="39" type="line"/>
      <point x="741" y="50" type="line"/>
      <point x="747" y="60" type="line"/>
      <point x="751" y="71" type="line"/>
      <point x="756" y="82" type="line"/>
      <point x="759" y="93" type="line"/>
      <point x="762" y="104" type="line"/>
      <point x="764" y="114" type="line"/>
      <point x="766" y="124" type="line"/>
      <point x="767" y="134" type="line"/>
      <point x="768" y="144" type="line"/>
      <point x="769" y="153" type="line"/>
      <point x="769" y="162" type="line"/>
      <point x="770" y="171" type="line"/>
      <point x="770" y="179" type="line"/>
      <point x="770" y="186" type="line"/>
      <point x="770" y="193" type="line"/>
      <point x="770" y="200" type="line"/>
      <point x="770" y="600" type="line"/>
      <point x="770" y="607" type="line"/>
      <point x="770" y="614" type="line"/>
      <point x="770" y="622" type="line"/>
      <point x="770" y="630" type="line"/>
      <point x="769" y="639" type="line"/>
      <point x="769" y="648" type="line"/>
      <point x="768" y="658" type="line"/>
      <point x="767" y="668" type="line"/>
      <point x="765" y="678" type="line"/>
      <point x="763" y="688" type="line"/>
      <point x="761" y="699" type="line"/>
      <point x="758" y="710" type="line"/>
      <point x="754" y="721" type="line"/>
      <point x="750" y="732" type="line"/>
      <point x="745" y="743" type="line"/>
      <point x="739" y="754" type="line"/>
      <point x="733" y="765" type="line"/>
      <point x="725" y="775" type="line"/>
      <point x="719" y="782" type="line" smooth="yes"/>
      <point x="719" y="783"/>
      <point x="717" y="785"/>
      <point x="716" y="786" type="curve" smooth="yes"/>
      <point x="707" y="796" type="line"/>
      <point x="697" y="805" type="line"/>
      <point x="685" y="814" type="line"/>
      <point x="673" y="822" type="line"/>
      <point x="660" y="829" type="line"/>
      <point x="647" y="835" type="line"/>
      <point x="632" y="841" type="line"/>
      <point x="617" y="846" type="line"/>
      <point x="601" y="850" type="line"/>
      <point x="584" y="854" type="line"/>
      <point x="567" y="857" type="line"/>
      <point x="548" y="859" type="line"/>
      <point x="529" y="860" type="line"/>
      <point x="511" y="860" type="line" smooth="yes"/>
      <point x="511" y="860"/>
      <point x="510" y="860"/>
      <point x="510" y="860" type="curve" smooth="yes"/>
      <point x="303" y="860" type="line"/>
      <point x="296" y="860" type="line"/>
      <point x="288" y="860" type="line"/>
      <point x="280" y="860" type="line"/>
      <point x="271" y="859" type="line"/>
      <point x="262" y="859" type="line"/>
      <point x="252" y="858" type="line"/>
      <point x="242" y="857" type="line"/>
      <point x="232" y="855" type="line"/>
      <point x="222" y="853" type="line"/>
      <point x="211" y="851" type="line"/>
      <point x="200" y="848" type="line"/>
      <point x="189" y="844" type="line"/>
      <point x="178" y="840" type="line"/>
      <point x="167" y="835" type="line"/>
      <point x="156" y="829" type="line"/>
      <point x="145" y="823" type="line"/>
      <point x="135" y="815" type="line"/>
      <point x="128" y="809" type="line" smooth="yes"/>
      <point x="127" y="809"/>
      <point x="125" y="807"/>
      <point x="124" y="806" type="curve" smooth="yes"/>
      <point x="114" y="797" type="line"/>
      <point x="105" y="787" type="line"/>
      <point x="96" y="775" type="line"/>
      <point x="88" y="763" type="line"/>
      <point x="81" y="750" type="line"/>
      <point x="75" y="737" type="line"/>
      <point x="69" y="722" type="line"/>
      <point x="64" y="707" type="line"/>
      <point x="60" y="691" type="line"/>
      <point x="56" y="674" type="line"/>
      <point x="53" y="657" type="line"/>
      <point x="51" y="638" type="line"/>
      <point x="50" y="619" type="line"/>
      <point x="50" y="600" type="line"/>
      <point x="50" y="593" type="line"/>
      <point x="50" y="586" type="line"/>
      <point x="50" y="578" type="line"/>
      <point x="50" y="570" type="line"/>
      <point x="51" y="561" type="line"/>
      <point x="51" y="552" type="line"/>
      <point x="52" y="542" type="line"/>
      <point x="53" y="532" type="line"/>
      <point x="55" y="522" type="line"/>
      <point x="57" y="512" type="line"/>
      <point x="59" y="501" type="line"/>
      <point x="62" y="490" type="line"/>
      <point x="66" y="479" type="line"/>
      <point x="70" y="468" type="line"/>
      <point x="75" y="457" type="line"/>
      <point x="81" y="446" type="line"/>
      <point x="87" y="435" type="line"/>
      <point x="95" y="425" type="line"/>
      <point x="101" y="418" type="line" smooth="yes"/>
      <point x="101" y="417"/>
      <point x="103" y="415"/>
      <point x="104" y="414" type="curve" smooth="yes"/>
      <point x="113" y="404" type="line"/>
      <point x="123" y="395" type="line"/>
      <point x="135" y="386" type="line"/>
      <point x="147" y="378" type="line"/>
      <point x="160" y="371" type="line"/>
      <point x="173" y="365" type="line"/>
      <point x="188" y="359" type="line"/>
      <point x="203" y="354" type="line"/>
      <point x="219" y="350" type="line"/>
      <point x="236" y="346" type="line"/>
      <point x="253" y="343" type="line"/>
      <point x="272" y="341" type="line"/>
      <point x="291" y="340" type="line"/>
      <point x="310" y="340" type="line"/>
      <point x="500" y="340" type="line"/>
      <point x="509" y="340" type="line"/>
      <point x="524" y="340" type="line"/>
      <point x="538" y="339" type="line"/>
      <point x="551" y="338" type="line"/>
      <point x="562" y="336" type="line"/>
      <point x="573" y="334" type="line"/>
      <point x="582" y="331" type="line"/>
      <point x="590" y="329" type="line"/>
      <point x="598" y="326" type="line"/>
      <point x="604" y="323" type="line"/>
      <point x="609" y="320" type="line"/>
      <point x="614" y="317" type="line"/>
      <point x="619" y="314" type="line"/>
      <point x="623" y="310" type="line"/>
      <point x="629" y="304" type="line"/>
      <point x="629" y="303" type="line"/>
      <point x="632" y="299" type="line"/>
      <point x="635" y="295" type="line"/>
      <point x="637" y="291" type="line"/>
      <point x="639" y="286" type="line"/>
      <point x="641" y="281" type="line"/>
      <point x="643" y="276" type="line"/>
      <point x="644" y="270" type="line"/>
      <point x="646" y="265" type="line"/>
      <point x="647" y="259" type="line"/>
      <point x="648" y="253" type="line"/>
      <point x="649" y="246" type="line"/>
      <point x="649" y="240" type="line"/>
      <point x="649" y="233" type="line"/>
      <point x="650" y="227" type="line"/>
      <point x="650" y="220" type="line"/>
      <point x="650" y="213" type="line"/>
      <point x="650" y="207" type="line"/>
      <point x="650" y="200" type="line" smooth="yes"/>
      <point x="650" y="193" type="line"/>
      <point x="650" y="187" type="line"/>
      <point x="650" y="180" type="line"/>
      <point x="650" y="173" type="line"/>
      <point x="649" y="167" type="line"/>
      <point x="649" y="160" type="line"/>
      <point x="649" y="154" type="line"/>
      <point x="648" y="147" type="line"/>
      <point x="647" y="141" type="line"/>
      <point x="646" y="135" type="line"/>
      <point x="644" y="130" type="line"/>
      <point x="643" y="124" type="line"/>
      <point x="641" y="119" type="line"/>
      <point x="639" y="114" type="line"/>
      <point x="637" y="109" type="line"/>
      <point x="635" y="105" type="line"/>
      <point x="632" y="101" type="line"/>
      <point x="629" y="97" type="line"/>
      <point x="629" y="96" type="line"/>
      <point x="623" y="90" type="line"/>
      <point x="619" y="86" type="line"/>
      <point x="614" y="83" type="line"/>
      <point x="609" y="80" type="line"/>
      <point x="604" y="77" type="line"/>
      <point x="598" y="74" type="line"/>
      <point x="590" y="71" type="line"/>
      <point x="582" y="69" type="line"/>
      <point x="573" y="66" type="line"/>
      <point x="562" y="64" type="line"/>
      <point x="551" y="62" type="line"/>
      <point x="538" y="61" type="line"/>
      <point x="524" y="60" type="line"/>
      <point x="509" y="60" type="line"/>
      <point x="500" y="60" type="line"/>
      <point x="303" y="60" type="line"/>
      <point x="297" y="60" type="line"/>
      <point x="290" y="60" type="line"/>
      <point x="283" y="60" type="line"/>
      <point x="277" y="61" type="line"/>
      <point x="270" y="61" type="line"/>
      <point x="264" y="61" type="line"/>
      <point x="257" y="62" type="line"/>
      <point x="251" y="63" type="line"/>
      <point x="245" y="64" type="line"/>
      <point x="240" y="66" type="line"/>
      <point x="234" y="67" type="line"/>
      <point x="229" y="69" type="line"/>
      <point x="224" y="71" type="line"/>
      <point x="219" y="73" type="line"/>
      <point x="215" y="75" type="line"/>
      <point x="211" y="78" type="line"/>
      <point x="207" y="81" type="line"/>
      <point x="206" y="81" type="line"/>
      <point x="200" y="87" type="line"/>
      <point x="196" y="91" type="line"/>
      <point x="193" y="96" type="line"/>
      <point x="190" y="101" type="line"/>
      <point x="187" y="106" type="line"/>
      <point x="184" y="112" type="line"/>
      <point x="181" y="120" type="line"/>
      <point x="179" y="128" type="line"/>
      <point x="176" y="137" type="line"/>
      <point x="174" y="148" type="line"/>
      <point x="172" y="159" type="line"/>
      <point x="171" y="172" type="line"/>
      <point x="170" y="186" type="line"/>
      <point x="170" y="201" type="line" smooth="yes"/>
      <point x="169" y="234"/>
      <point x="141" y="261"/>
      <point x="109" y="260" type="curve" smooth="yes"/>
      <point x="76" y="259"/>
      <point x="49" y="231"/>
      <point x="50" y="199" type="curve" smooth="yes"/>
      <point x="50" y="179" type="line"/>
      <point x="52" y="159" type="line"/>
      <point x="54" y="141" type="line"/>
      <point x="57" y="123" type="line"/>
      <point x="60" y="106" type="line"/>
      <point x="65" y="90" type="line"/>
      <point x="70" y="74" type="line"/>
      <point x="76" y="60" type="line"/>
      <point x="83" y="46" type="line"/>
      <point x="91" y="33" type="line"/>
      <point x="99" y="21" type="line"/>
      <point x="108" y="10" type="line"/>
      <point x="118" y="0" type="line"/>
      <point x="124" y="-6" type="line" smooth="yes"/>
      <point x="125" y="-7"/>
      <point x="127" y="-9"/>
      <point x="128" y="-9" type="curve" smooth="yes"/>
      <point x="138" y="-18" type="line"/>
      <point x="149" y="-25" type="line"/>
      <point x="160" y="-31" type="line"/>
      <point x="170" y="-37" type="line"/>
      <point x="181" y="-41" type="line"/>
      <point x="192" y="-46" type="line"/>
      <point x="203" y="-49" type="line"/>
      <point x="214" y="-52" type="line"/>
      <point x="224" y="-54" type="line"/>
      <point x="234" y="-56" type="line"/>
      <point x="244" y="-57" type="line"/>
      <point x="254" y="-58" type="line"/>
      <point x="263" y="-59" type="line"/>
      <point x="272" y="-59" type="line"/>
      <point x="281" y="-60" type="line"/>
      <point x="289" y="-60" type="line"/>
      <point x="296" y="-60" type="line"/>
      <point x="303" y="-60" type="line"/>
    </contour>
  </outline>
</glyph>
<glyph name="semicolon" format="1">
  <advance width="320"/>
  <unicode hex="003B"/>
  <outline>
    <contour>
      <point x="210" y="523" type="curve" smooth="yes"/>
      <point x="242" y="523"/>
      <point x="270" y="551"/>
      <point x="270" y="583" type="curve" smooth="yes"/>
      <point x="270" y="592" type="line" smooth="yes"/>
      <point x="270" y="624"/>
      <point x="242" y="652"/>
      <point x="210" y="652" type="curve" smooth="yes"/>
      <point x="178" y="652"/>
      <point x="150" y="624"/>
      <point x="150" y="592" type="curve" smooth="yes"/>
      <point x="150" y="583" type="line" smooth="yes"/>
      <point x="150" y="551"/>
      <point x="178" y="523"/>
    </contour>
    <contour>
      <point x="110" y="-68" type="curve" smooth="yes"/>
      <point x="210" y="-68" type="line" smooth="yes"/>
      <point x="243" y="-68"/>
      <point x="270" y="-41"/>
      <point x="270" y="-8" type="curve" smooth="yes"/>
      <point x="270" y="192" type="line" smooth="yes"/>
      <point x="270" y="224"/>
      <point x="242" y="252"/>
      <point x="210" y="252" type="curve" smooth="yes"/>
      <point x="178" y="252"/>
      <point x="150" y="224"/>
      <point x="150" y="192" type="curve" smooth="yes"/>
      <point x="150" y="52" type="line"/>
      <point x="110" y="52" type="line" smooth="yes"/>
      <point x="78" y="52"/>
      <point x="50" y="24"/>
      <point x="50" y="-8" type="curve" smooth="yes"/>
      <point x="50" y="-40"/>
      <point x="78" y="-68"/>
    </contour>
  </outline>
</glyph>
<glyph name="less" format="1">
  <advance width="611"/>
  <unicode hex="003C"/>
  <outline>
    <contour>
      <point x="555" y="76" type="curve" smooth="yes"/>
      <point x="569" y="105"/>
      <point x="557" y="142"/>
      <point x="528" y="157" type="curve" smooth="yes"/>
      <point x="235" y="303" type="line"/>
      <point x="519" y="445" type="line"/>
      <point x="528" y="449" type="line" smooth="yes"/>
      <point x="557" y="464"/>
      <point x="569" y="501"/>
      <point x="555" y="530" type="curve" smooth="yes"/>
      <point x="540" y="559"/>
      <point x="503" y="571"/>
      <point x="474" y="557" type="curve" smooth="yes"/>
      <point x="92" y="366" type="line"/>
      <point x="83" y="361" type="line" smooth="yes"/>
      <point x="65" y="352"/>
      <point x="50" y="328"/>
      <point x="50" y="307" type="curve" smooth="yes"/>
      <point x="50" y="299" type="line" smooth="yes"/>
      <point x="50" y="278"/>
      <point x="65" y="254"/>
      <point x="83" y="245" type="curve" smooth="yes"/>
      <point x="465" y="54" type="line"/>
      <point x="474" y="49" type="line" smooth="yes"/>
      <point x="503" y="35"/>
      <point x="540" y="47"/>
    </contour>
  </outline>
</glyph>
<glyph name="equal" format="1">
  <advance width="820"/>
  <unicode hex="003D"/>
  <outline>
    <contour>
      <point x="110" y="378" type="curve" smooth="yes"/>
      <point x="710" y="378" type="line" smooth="yes"/>
      <point x="742" y="378"/>
      <point x="770" y="406"/>
      <point x="770" y="438" type="curve" smooth="yes"/>
      <point x="770" y="470"/>
      <point x="742" y="498"/>
      <point x="710" y="498" type="curve" smooth="yes"/>
      <point x="110" y="498" type="line" smooth="yes"/>
      <point x="78" y="498"/>
      <point x="50" y="470"/>
      <point x="50" y="438" type="curve" smooth="yes"/>
      <point x="50" y="406"/>
      <point x="78" y="378"/>
    </contour>
    <contour>
      <point x="110" y="78" type="curve" smooth="yes"/>
      <point x="710" y="78" type="line" smooth="yes"/>
      <point x="742" y="78"/>
      <point x="770" y="106"/>
      <point x="770" y="138" type="curve" smooth="yes"/>
      <point x="770" y="170"/>
      <point x="742" y="198"/>
      <point x="710" y="198" type="curve" smooth="yes"/>
      <point x="110" y="198" type="line" smooth="yes"/>
      <point x="78" y="198"/>
      <point x="50" y="170"/>
      <point x="50" y="138" type="curve" smooth="yes"/>
      <point x="50" y="106"/>
      <point x="78" y="78"/>
    </contour>
  </outline>
</glyph>
<glyph name="greater" format="1">
  <advance width="611"/>
  <unicode hex="003E"/>
  <outline>
    <contour>
      <point x="137" y="66" type="curve" smooth="yes"/>
      <point x="519" y="257" type="line"/>
      <point x="528" y="262" type="line" smooth="yes"/>
      <point x="546" y="271"/>
      <point x="561" y="295"/>
      <point x="561" y="316" type="curve"/>
      <point x="561" y="324" type="line"/>
      <point x="561" y="345"/>
      <point x="546" y="369"/>
      <point x="528" y="378" type="curve" smooth="yes"/>
      <point x="146" y="569" type="line"/>
      <point x="137" y="574" type="line" smooth="yes"/>
      <point x="108" y="588"/>
      <point x="71" y="576"/>
      <point x="56" y="547" type="curve" smooth="yes"/>
      <point x="42" y="518"/>
      <point x="54" y="481"/>
      <point x="83" y="466" type="curve" smooth="yes"/>
      <point x="376" y="320" type="line"/>
      <point x="92" y="178" type="line"/>
      <point x="83" y="174" type="line" smooth="yes"/>
      <point x="54" y="159"/>
      <point x="42" y="122"/>
      <point x="56" y="93" type="curve" smooth="yes"/>
      <point x="71" y="64"/>
      <point x="108" y="52"/>
    </contour>
  </outline>
</glyph>
<glyph name="question" format="1">
  <advance width="719"/>
  <unicode hex="003F"/>
  <outline>
    <contour>
      <point x="309" y="140" type="curve" smooth="yes"/>
      <point x="341" y="140"/>
      <point x="369" y="168"/>
      <point x="369" y="200" type="curve" smooth="yes"/>
      <point x="369" y="339" type="line"/>
      <point x="416" y="339" type="line"/>
      <point x="423" y="339" type="line"/>
      <point x="430" y="339" type="line"/>
      <point x="439" y="339" type="line"/>
      <point x="447" y="340" type="line"/>
      <point x="456" y="340" type="line"/>
      <point x="465" y="341" type="line"/>
      <point x="475" y="342" type="line"/>
      <point x="485" y="344" type="line"/>
      <point x="495" y="345" type="line"/>
      <point x="506" y="348" type="line"/>
      <point x="516" y="351" type="line"/>
      <point x="527" y="354" type="line"/>
      <point x="538" y="358" type="line"/>
      <point x="549" y="363" type="line"/>
      <point x="560" y="368" type="line"/>
      <point x="571" y="375" type="line"/>
      <point x="581" y="382" type="line"/>
      <point x="592" y="390" type="line"/>
      <point x="602" y="400" type="line"/>
      <point x="611" y="410" type="line"/>
      <point x="620" y="421" type="line"/>
      <point x="628" y="433" type="line" smooth="yes"/>
      <point x="629" y="434"/>
      <point x="630" y="436"/>
      <point x="631" y="437" type="curve" smooth="yes"/>
      <point x="636" y="446" type="line"/>
      <point x="643" y="460" type="line"/>
      <point x="649" y="474" type="line"/>
      <point x="654" y="490" type="line"/>
      <point x="659" y="506" type="line"/>
      <point x="662" y="523" type="line"/>
      <point x="665" y="541" type="line"/>
      <point x="667" y="559" type="line"/>
      <point x="669" y="579" type="line"/>
      <point x="669" y="599" type="line"/>
      <point x="669" y="607" type="line"/>
      <point x="669" y="614" type="line"/>
      <point x="669" y="622" type="line"/>
      <point x="669" y="630" type="line"/>
      <point x="668" y="638" type="line"/>
      <point x="668" y="647" type="line"/>
      <point x="667" y="657" type="line"/>
      <point x="666" y="666" type="line"/>
      <point x="664" y="676" type="line"/>
      <point x="662" y="686" type="line"/>
      <point x="660" y="697" type="line"/>
      <point x="657" y="707" type="line"/>
      <point x="654" y="718" type="line"/>
      <point x="650" y="729" type="line"/>
      <point x="645" y="740" type="line"/>
      <point x="639" y="751" type="line"/>
      <point x="633" y="762" type="line"/>
      <point x="625" y="772" type="line"/>
      <point x="617" y="783" type="line"/>
      <point x="608" y="793" type="line"/>
      <point x="597" y="802" type="line"/>
      <point x="586" y="811" type="line" smooth="yes"/>
      <point x="585" y="812"/>
      <point x="584" y="813"/>
      <point x="583" y="814" type="curve" smooth="yes"/>
      <point x="574" y="819" type="line"/>
      <point x="561" y="827" type="line"/>
      <point x="547" y="834" type="line"/>
      <point x="533" y="840" type="line"/>
      <point x="517" y="845" type="line"/>
      <point x="501" y="850" type="line"/>
      <point x="484" y="853" type="line"/>
      <point x="467" y="856" type="line"/>
      <point x="448" y="858" type="line"/>
      <point x="428" y="860" type="line"/>
      <point x="408" y="860" type="line"/>
      <point x="397" y="860" type="line"/>
      <point x="308" y="860" type="line"/>
      <point x="297" y="860" type="line"/>
      <point x="285" y="859" type="line"/>
      <point x="277" y="858" type="line"/>
      <point x="268" y="857" type="line"/>
      <point x="259" y="855" type="line"/>
      <point x="250" y="853" type="line"/>
      <point x="240" y="851" type="line"/>
      <point x="229" y="848" type="line"/>
      <point x="218" y="844" type="line"/>
      <point x="207" y="840" type="line"/>
      <point x="195" y="835" type="line"/>
      <point x="183" y="830" type="line"/>
      <point x="171" y="824" type="line"/>
      <point x="159" y="816" type="line"/>
      <point x="147" y="808" type="line"/>
      <point x="135" y="799" type="line"/>
      <point x="124" y="789" type="line"/>
      <point x="113" y="777" type="line"/>
      <point x="102" y="765" type="line"/>
      <point x="92" y="751" type="line" smooth="yes"/>
      <point x="91" y="750"/>
      <point x="90" y="748"/>
      <point x="89" y="747" type="curve" smooth="yes"/>
      <point x="83" y="736" type="line"/>
      <point x="75" y="720" type="line"/>
      <point x="67" y="703" type="line" smooth="yes"/>
      <point x="67" y="701"/>
      <point x="66" y="699"/>
      <point x="66" y="698" type="curve" smooth="yes"/>
      <point x="61" y="684" type="line"/>
      <point x="57" y="665" type="line"/>
      <point x="53" y="645" type="line"/>
      <point x="51" y="623" type="line"/>
      <point x="50" y="601" type="line" smooth="yes"/>
      <point x="49" y="568"/>
      <point x="76" y="540"/>
      <point x="108" y="539" type="curve" smooth="yes"/>
      <point x="141" y="538"/>
      <point x="169" y="565"/>
      <point x="170" y="597" type="curve" smooth="yes"/>
      <point x="170" y="612" type="line"/>
      <point x="171" y="625" type="line"/>
      <point x="173" y="637" type="line"/>
      <point x="176" y="648" type="line"/>
      <point x="180" y="660" type="line"/>
      <point x="182" y="666" type="line"/>
      <point x="186" y="674" type="line"/>
      <point x="192" y="684" type="line"/>
      <point x="194" y="688" type="line"/>
      <point x="199" y="694" type="line"/>
      <point x="204" y="700" type="line"/>
      <point x="210" y="705" type="line"/>
      <point x="216" y="709" type="line"/>
      <point x="222" y="714" type="line"/>
      <point x="228" y="718" type="line"/>
      <point x="235" y="721" type="line"/>
      <point x="241" y="725" type="line"/>
      <point x="248" y="727" type="line"/>
      <point x="255" y="730" type="line"/>
      <point x="261" y="732" type="line"/>
      <point x="268" y="734" type="line"/>
      <point x="274" y="736" type="line"/>
      <point x="280" y="737" type="line"/>
      <point x="286" y="738" type="line"/>
      <point x="291" y="739" type="line"/>
      <point x="295" y="739" type="line"/>
      <point x="302" y="740" type="line"/>
      <point x="308" y="740" type="line"/>
      <point x="397" y="740" type="line"/>
      <point x="406" y="740" type="line"/>
      <point x="421" y="740" type="line"/>
      <point x="435" y="739" type="line"/>
      <point x="448" y="738" type="line"/>
      <point x="460" y="736" type="line"/>
      <point x="470" y="734" type="line"/>
      <point x="479" y="731" type="line"/>
      <point x="488" y="729" type="line"/>
      <point x="495" y="726" type="line"/>
      <point x="501" y="723" type="line"/>
      <point x="507" y="720" type="line"/>
      <point x="515" y="715" type="line"/>
      <point x="517" y="713" type="line"/>
      <point x="521" y="710" type="line"/>
      <point x="524" y="707" type="line"/>
      <point x="527" y="703" type="line"/>
      <point x="530" y="699" type="line"/>
      <point x="533" y="695" type="line"/>
      <point x="535" y="690" type="line"/>
      <point x="538" y="686" type="line"/>
      <point x="540" y="681" type="line"/>
      <point x="541" y="675" type="line"/>
      <point x="543" y="670" type="line"/>
      <point x="544" y="664" type="line"/>
      <point x="546" y="658" type="line"/>
      <point x="547" y="652" type="line"/>
      <point x="547" y="646" type="line"/>
      <point x="548" y="639" type="line"/>
      <point x="548" y="633" type="line"/>
      <point x="549" y="626" type="line"/>
      <point x="549" y="620" type="line"/>
      <point x="549" y="613" type="line"/>
      <point x="549" y="607" type="line"/>
      <point x="549" y="601" type="line"/>
      <point x="549" y="586" type="line"/>
      <point x="548" y="572" type="line"/>
      <point x="547" y="559" type="line"/>
      <point x="545" y="547" type="line"/>
      <point x="543" y="537" type="line"/>
      <point x="540" y="528" type="line"/>
      <point x="538" y="520" type="line"/>
      <point x="535" y="512" type="line"/>
      <point x="532" y="506" type="line"/>
      <point x="527" y="497" type="line"/>
      <point x="526" y="495" type="line"/>
      <point x="523" y="491" type="line"/>
      <point x="519" y="487" type="line"/>
      <point x="516" y="483" type="line"/>
      <point x="512" y="480" type="line"/>
      <point x="508" y="477" type="line"/>
      <point x="504" y="475" type="line"/>
      <point x="500" y="472" type="line"/>
      <point x="495" y="470" type="line"/>
      <point x="490" y="468" type="line"/>
      <point x="485" y="466" type="line"/>
      <point x="479" y="465" type="line"/>
      <point x="473" y="463" type="line"/>
      <point x="467" y="462" type="line"/>
      <point x="461" y="461" type="line"/>
      <point x="455" y="461" type="line"/>
      <point x="449" y="460" type="line"/>
      <point x="442" y="460" type="line"/>
      <point x="435" y="459" type="line"/>
      <point x="429" y="459" type="line"/>
      <point x="422" y="459" type="line"/>
      <point x="416" y="459" type="line"/>
      <point x="319" y="459" type="line"/>
      <point x="309" y="459" type="line" smooth="yes"/>
      <point x="276" y="459"/>
      <point x="249" y="432"/>
      <point x="249" y="399" type="curve" smooth="yes"/>
      <point x="249" y="200" type="line" smooth="yes"/>
      <point x="249" y="168"/>
      <point x="277" y="140"/>
    </contour>
    <contour>
      <point x="309" y="-60" type="curve" smooth="yes"/>
      <point x="341" y="-60"/>
      <point x="369" y="-32"/>
      <point x="369" y="0" type="curve" smooth="yes"/>
      <point x="369" y="11" type="line" smooth="yes"/>
      <point x="369" y="43"/>
      <point x="341" y="71"/>
      <point x="309" y="71" type="curve" smooth="yes"/>
      <point x="277" y="71"/>
      <point x="249" y="43"/>
      <point x="249" y="11" type="curve" smooth="yes"/>
      <point x="249" y="0" type="line" smooth="yes"/>
      <point x="249" y="-32"/>
      <point x="277" y="-60"/>
    </contour>
  </outline>
</glyph>
<glyph name="at" format="1">
  <advance width="820"/>
  <unicode hex="0040"/>
  <outline>
    <contour>
      <point x="312" y="-102" type="line"/>
      <point x="510" y="-102" type="line" smooth="yes"/>
      <point x="542" y="-102"/>
      <point x="570" y="-74"/>
      <point x="570" y="-42" type="curve" smooth="yes"/>
      <point x="570" y="-10"/>
      <point x="542" y="18"/>
      <point x="510" y="18" type="curve" smooth="yes"/>
      <point x="312" y="18" type="line"/>
      <point x="295" y="18" type="line"/>
      <point x="281" y="19" type="line"/>
      <point x="268" y="21" type="line"/>
      <point x="256" y="23" type="line"/>
      <point x="246" y="25" type="line"/>
      <point x="236" y="28" type="line"/>
      <point x="228" y="31" type="line"/>
      <point x="220" y="34" type="line"/>
      <point x="214" y="37" type="line"/>
      <point x="208" y="40" type="line"/>
      <point x="206" y="42" type="line"/>
      <point x="199" y="47" type="line"/>
      <point x="195" y="51" type="line"/>
      <point x="192" y="55" type="line"/>
      <point x="189" y="58" type="line"/>
      <point x="187" y="62" type="line"/>
      <point x="184" y="67" type="line"/>
      <point x="182" y="71" type="line"/>
      <point x="180" y="75" type="line"/>
      <point x="178" y="80" type="line"/>
      <point x="177" y="85" type="line"/>
      <point x="175" y="91" type="line"/>
      <point x="174" y="96" type="line"/>
      <point x="173" y="102" type="line"/>
      <point x="172" y="108" type="line"/>
      <point x="172" y="114" type="line"/>
      <point x="171" y="120" type="line"/>
      <point x="171" y="126" type="line"/>
      <point x="170" y="133" type="line"/>
      <point x="170" y="139" type="line"/>
      <point x="170" y="145" type="line"/>
      <point x="170" y="152" type="line"/>
      <point x="170" y="158" type="line"/>
      <point x="170" y="168" type="line"/>
      <point x="170" y="562" type="line"/>
      <point x="170" y="569" type="line"/>
      <point x="170" y="576" type="line"/>
      <point x="170" y="582" type="line"/>
      <point x="170" y="589" type="line"/>
      <point x="170" y="595" type="line"/>
      <point x="170" y="602" type="line"/>
      <point x="171" y="608" type="line"/>
      <point x="171" y="614" type="line"/>
      <point x="172" y="620" type="line"/>
      <point x="173" y="626" type="line"/>
      <point x="174" y="631" type="line"/>
      <point x="176" y="636" type="line"/>
      <point x="178" y="641" type="line"/>
      <point x="179" y="646" type="line"/>
      <point x="181" y="651" type="line"/>
      <point x="184" y="655" type="line"/>
      <point x="186" y="659" type="line"/>
      <point x="187" y="659" type="line"/>
      <point x="192" y="666" type="line"/>
      <point x="195" y="669" type="line"/>
      <point x="199" y="672" type="line"/>
      <point x="200" y="673" type="line"/>
      <point x="208" y="678" type="line"/>
      <point x="214" y="681" type="line"/>
      <point x="220" y="684" type="line"/>
      <point x="227" y="687" type="line"/>
      <point x="235" y="690" type="line"/>
      <point x="245" y="692" type="line"/>
      <point x="255" y="694" type="line"/>
      <point x="267" y="696" type="line"/>
      <point x="280" y="697" type="line"/>
      <point x="294" y="698" type="line"/>
      <point x="309" y="698" type="line"/>
      <point x="318" y="698" type="line"/>
      <point x="507" y="698" type="line"/>
      <point x="525" y="698" type="line"/>
      <point x="539" y="697" type="line"/>
      <point x="552" y="695" type="line"/>
      <point x="564" y="693" type="line"/>
      <point x="574" y="691" type="line"/>
      <point x="584" y="688" type="line"/>
      <point x="592" y="685" type="line"/>
      <point x="600" y="682" type="line"/>
      <point x="606" y="679" type="line"/>
      <point x="612" y="676" type="line"/>
      <point x="614" y="674" type="line"/>
      <point x="621" y="669" type="line"/>
      <point x="625" y="665" type="line"/>
      <point x="628" y="661" type="line"/>
      <point x="631" y="658" type="line"/>
      <point x="633" y="654" type="line"/>
      <point x="636" y="649" type="line"/>
      <point x="638" y="645" type="line"/>
      <point x="640" y="641" type="line"/>
      <point x="642" y="636" type="line"/>
      <point x="643" y="631" type="line"/>
      <point x="645" y="625" type="line"/>
      <point x="646" y="620" type="line"/>
      <point x="647" y="614" type="line"/>
      <point x="648" y="608" type="line"/>
      <point x="648" y="602" type="line"/>
      <point x="649" y="596" type="line"/>
      <point x="649" y="590" type="line"/>
      <point x="650" y="583" type="line"/>
      <point x="650" y="577" type="line"/>
      <point x="650" y="571" type="line"/>
      <point x="650" y="564" type="line"/>
      <point x="650" y="558" type="line"/>
      <point x="650" y="548" type="line"/>
      <point x="650" y="359" type="line"/>
      <point x="650" y="342" type="line"/>
      <point x="649" y="328" type="line"/>
      <point x="647" y="315" type="line"/>
      <point x="645" y="303" type="line"/>
      <point x="643" y="293" type="line"/>
      <point x="640" y="283" type="line"/>
      <point x="637" y="275" type="line"/>
      <point x="634" y="268" type="line"/>
      <point x="631" y="261" type="line"/>
      <point x="629" y="258" type="line"/>
      <point x="624" y="251" type="line"/>
      <point x="621" y="246" type="line"/>
      <point x="617" y="243" type="line"/>
      <point x="613" y="240" type="line"/>
      <point x="610" y="237" type="line"/>
      <point x="606" y="234" type="line"/>
      <point x="602" y="232" type="line"/>
      <point x="597" y="230" type="line"/>
      <point x="593" y="228" type="line"/>
      <point x="588" y="226" type="line"/>
      <point x="583" y="224" type="line"/>
      <point x="578" y="223" type="line"/>
      <point x="572" y="222" type="line"/>
      <point x="570" y="222" type="line"/>
      <point x="570" y="558" type="line" smooth="yes"/>
      <point x="570" y="558" type="line"/>
      <point x="570" y="558" type="line" smooth="yes"/>
      <point x="570" y="560" type="line"/>
      <point x="570" y="559"/>
      <point x="570" y="561"/>
      <point x="570" y="562" type="curve"/>
      <point x="570" y="560"/>
      <point x="570" y="563"/>
      <point x="570" y="565" type="curve"/>
      <point x="569" y="566"/>
      <point x="569" y="567"/>
      <point x="569" y="567" type="curve"/>
      <point x="569" y="568"/>
      <point x="569" y="570"/>
      <point x="569" y="571" type="curve"/>
      <point x="568" y="571"/>
      <point x="568" y="572"/>
      <point x="568" y="572" type="curve"/>
      <point x="568" y="574"/>
      <point x="568" y="575"/>
      <point x="567" y="576" type="curve"/>
      <point x="567" y="576"/>
      <point x="567" y="577"/>
      <point x="567" y="578" type="curve"/>
      <point x="566" y="579"/>
      <point x="566" y="580"/>
      <point x="565" y="581" type="curve"/>
      <point x="565" y="581"/>
      <point x="565" y="582"/>
      <point x="565" y="582" type="curve"/>
      <point x="564" y="583"/>
      <point x="564" y="585"/>
      <point x="563" y="585" type="curve"/>
      <point x="563" y="586"/>
      <point x="562" y="587"/>
      <point x="562" y="587" type="curve"/>
      <point x="562" y="588"/>
      <point x="561" y="589"/>
      <point x="560" y="590" type="curve"/>
      <point x="560" y="591"/>
      <point x="560" y="591"/>
      <point x="559" y="592" type="curve"/>
      <point x="559" y="592"/>
      <point x="558" y="593"/>
      <point x="557" y="594" type="curve"/>
      <point x="557" y="595"/>
      <point x="557" y="595"/>
      <point x="556" y="596" type="curve"/>
      <point x="556" y="596"/>
      <point x="555" y="597"/>
      <point x="554" y="598" type="curve"/>
      <point x="554" y="598"/>
      <point x="553" y="599"/>
      <point x="553" y="600" type="curve"/>
      <point x="552" y="600"/>
      <point x="551" y="601"/>
      <point x="551" y="601" type="curve"/>
      <point x="550" y="602"/>
      <point x="550" y="603"/>
      <point x="549" y="603" type="curve"/>
      <point x="548" y="604"/>
      <point x="548" y="604"/>
      <point x="547" y="605" type="curve"/>
      <point x="546" y="605"/>
      <point x="546" y="606"/>
      <point x="545" y="606" type="curve"/>
      <point x="544" y="607"/>
      <point x="544" y="607"/>
      <point x="543" y="608" type="curve"/>
      <point x="542" y="608"/>
      <point x="541" y="609"/>
      <point x="540" y="609" type="curve"/>
      <point x="540" y="610"/>
      <point x="539" y="610"/>
      <point x="539" y="610" type="curve"/>
      <point x="538" y="611"/>
      <point x="537" y="611"/>
      <point x="536" y="612" type="curve"/>
      <point x="535" y="612"/>
      <point x="535" y="612"/>
      <point x="534" y="613" type="curve"/>
      <point x="533" y="613"/>
      <point x="532" y="614"/>
      <point x="531" y="614" type="curve"/>
      <point x="530" y="614"/>
      <point x="530" y="614"/>
      <point x="529" y="615" type="curve"/>
      <point x="528" y="615"/>
      <point x="527" y="615"/>
      <point x="526" y="616" type="curve"/>
      <point x="525" y="616"/>
      <point x="525" y="616"/>
      <point x="524" y="616" type="curve"/>
      <point x="523" y="617"/>
      <point x="522" y="617"/>
      <point x="521" y="617" type="curve"/>
      <point x="520" y="617"/>
      <point x="519" y="617"/>
      <point x="519" y="617" type="curve"/>
      <point x="512" y="618"/>
      <point x="514" y="618"/>
      <point x="515" y="618" type="curve"/>
      <point x="511" y="618"/>
      <point x="512" y="618"/>
      <point x="513" y="618" type="curve"/>
      <point x="510" y="618" type="line" smooth="yes"/>
      <point x="510" y="618" type="line"/>
      <point x="510" y="618" type="line" smooth="yes"/>
      <point x="503" y="618" type="line"/>
      <point x="496" y="618" type="line"/>
      <point x="488" y="618" type="line"/>
      <point x="480" y="618" type="line"/>
      <point x="471" y="617" type="line"/>
      <point x="462" y="617" type="line"/>
      <point x="452" y="616" type="line"/>
      <point x="442" y="615" type="line"/>
      <point x="432" y="613" type="line"/>
      <point x="422" y="611" type="line"/>
      <point x="411" y="609" type="line"/>
      <point x="400" y="606" type="line"/>
      <point x="389" y="602" type="line"/>
      <point x="378" y="598" type="line"/>
      <point x="367" y="593" type="line"/>
      <point x="356" y="587" type="line"/>
      <point x="345" y="581" type="line"/>
      <point x="335" y="573" type="line"/>
      <point x="328" y="567" type="line" smooth="yes"/>
      <point x="327" y="567"/>
      <point x="325" y="565"/>
      <point x="324" y="564" type="curve" smooth="yes"/>
      <point x="314" y="555" type="line"/>
      <point x="305" y="545" type="line"/>
      <point x="296" y="533" type="line"/>
      <point x="288" y="521" type="line"/>
      <point x="281" y="508" type="line"/>
      <point x="275" y="495" type="line"/>
      <point x="269" y="480" type="line"/>
      <point x="264" y="465" type="line"/>
      <point x="260" y="449" type="line"/>
      <point x="256" y="432" type="line"/>
      <point x="253" y="415" type="line"/>
      <point x="251" y="396" type="line"/>
      <point x="250" y="377" type="line"/>
      <point x="250" y="356" type="line"/>
      <point x="251" y="344" type="line"/>
      <point x="252" y="332" type="line"/>
      <point x="252" y="325" type="line"/>
      <point x="254" y="317" type="line"/>
      <point x="255" y="307" type="line"/>
      <point x="257" y="298" type="line"/>
      <point x="260" y="288" type="line"/>
      <point x="263" y="277" type="line"/>
      <point x="266" y="266" type="line"/>
      <point x="271" y="254" type="line"/>
      <point x="275" y="242" type="line"/>
      <point x="281" y="230" type="line"/>
      <point x="288" y="218" type="line"/>
      <point x="295" y="206" type="line"/>
      <point x="304" y="193" type="line"/>
      <point x="313" y="181" type="line"/>
      <point x="324" y="170" type="line"/>
      <point x="335" y="159" type="line"/>
      <point x="345" y="151" type="line" smooth="yes"/>
      <point x="346" y="150"/>
      <point x="347" y="149"/>
      <point x="348" y="148" type="curve" smooth="yes"/>
      <point x="362" y="138" type="line"/>
      <point x="373" y="131" type="line" smooth="yes"/>
      <point x="374" y="131"/>
      <point x="376" y="130"/>
      <point x="377" y="129" type="curve" smooth="yes"/>
      <point x="394" y="121" type="line"/>
      <point x="407" y="116" type="line" smooth="yes"/>
      <point x="408" y="115"/>
      <point x="410" y="114"/>
      <point x="411" y="114" type="curve" smooth="yes"/>
      <point x="429" y="108" type="line"/>
      <point x="448" y="104" type="line"/>
      <point x="469" y="101" type="line"/>
      <point x="490" y="99" type="line"/>
      <point x="510" y="98" type="line"/>
      <point x="510" y="98" type="line" smooth="yes"/>
      <point x="510" y="98" type="line"/>
      <point x="510" y="98" type="line"/>
      <point x="517" y="98" type="line"/>
      <point x="524" y="98" type="line"/>
      <point x="532" y="98" type="line"/>
      <point x="541" y="98" type="line"/>
      <point x="549" y="99" type="line"/>
      <point x="559" y="99" type="line"/>
      <point x="568" y="100" type="line"/>
      <point x="578" y="101" type="line"/>
      <point x="588" y="103" type="line"/>
      <point x="599" y="105" type="line"/>
      <point x="609" y="107" type="line"/>
      <point x="620" y="110" type="line"/>
      <point x="631" y="114" type="line"/>
      <point x="642" y="118" type="line"/>
      <point x="653" y="123" type="line"/>
      <point x="664" y="129" type="line"/>
      <point x="675" y="136" type="line"/>
      <point x="686" y="144" type="line"/>
      <point x="696" y="152" type="line"/>
      <point x="706" y="162" type="line"/>
      <point x="715" y="172" type="line"/>
      <point x="724" y="184" type="line"/>
      <point x="729" y="192" type="line" smooth="yes"/>
      <point x="730" y="193"/>
      <point x="731" y="195"/>
      <point x="732" y="196" type="curve" smooth="yes"/>
      <point x="739" y="209" type="line"/>
      <point x="745" y="222" type="line"/>
      <point x="751" y="237" type="line"/>
      <point x="756" y="252" type="line"/>
      <point x="760" y="268" type="line"/>
      <point x="764" y="285" type="line"/>
      <point x="767" y="302" type="line"/>
      <point x="769" y="321" type="line"/>
      <point x="770" y="340" type="line"/>
      <point x="770" y="359" type="line"/>
      <point x="770" y="548" type="line"/>
      <point x="770" y="558" type="line"/>
      <point x="770" y="565" type="line"/>
      <point x="770" y="572" type="line"/>
      <point x="770" y="580" type="line"/>
      <point x="770" y="589" type="line"/>
      <point x="769" y="598" type="line"/>
      <point x="769" y="607" type="line"/>
      <point x="768" y="616" type="line"/>
      <point x="766" y="626" type="line"/>
      <point x="765" y="636" type="line"/>
      <point x="763" y="647" type="line"/>
      <point x="760" y="657" type="line"/>
      <point x="757" y="668" type="line"/>
      <point x="754" y="679" type="line"/>
      <point x="749" y="690" type="line"/>
      <point x="744" y="701" type="line"/>
      <point x="738" y="712" type="line"/>
      <point x="731" y="723" type="line"/>
      <point x="724" y="734" type="line"/>
      <point x="715" y="744" type="line"/>
      <point x="705" y="754" type="line"/>
      <point x="695" y="763" type="line"/>
      <point x="687" y="769" type="line" smooth="yes"/>
      <point x="686" y="770"/>
      <point x="685" y="771"/>
      <point x="684" y="772" type="curve" smooth="yes"/>
      <point x="671" y="780" type="line"/>
      <point x="658" y="787" type="line"/>
      <point x="645" y="794" type="line"/>
      <point x="630" y="799" type="line"/>
      <point x="615" y="804" type="line"/>
      <point x="599" y="808" type="line"/>
      <point x="582" y="812" type="line"/>
      <point x="565" y="815" type="line"/>
      <point x="546" y="817" type="line"/>
      <point x="527" y="818" type="line"/>
      <point x="509" y="818" type="line" smooth="yes"/>
      <point x="509" y="818"/>
      <point x="508" y="818"/>
      <point x="508" y="818" type="curve" smooth="yes"/>
      <point x="307" y="818" type="line"/>
      <point x="286" y="818" type="line"/>
      <point x="267" y="816" type="line"/>
      <point x="248" y="814" type="line"/>
      <point x="231" y="811" type="line"/>
      <point x="214" y="808" type="line"/>
      <point x="198" y="803" type="line"/>
      <point x="182" y="798" type="line"/>
      <point x="168" y="792" type="line"/>
      <point x="154" y="786" type="line"/>
      <point x="141" y="778" type="line"/>
      <point x="133" y="772" type="line" smooth="yes"/>
      <point x="132" y="772"/>
      <point x="130" y="770"/>
      <point x="129" y="770" type="curve" smooth="yes"/>
      <point x="118" y="761" type="line"/>
      <point x="108" y="751" type="line"/>
      <point x="99" y="741" type="line"/>
      <point x="93" y="734" type="line" smooth="yes"/>
      <point x="92" y="734"/>
      <point x="91" y="732"/>
      <point x="91" y="731" type="curve" smooth="yes"/>
      <point x="83" y="720" type="line"/>
      <point x="77" y="710" type="line"/>
      <point x="72" y="699" type="line"/>
      <point x="67" y="688" type="line"/>
      <point x="63" y="677" type="line"/>
      <point x="60" y="666" type="line"/>
      <point x="57" y="656" type="line"/>
      <point x="55" y="646" type="line"/>
      <point x="53" y="635" type="line"/>
      <point x="52" y="626" type="line"/>
      <point x="51" y="616" type="line"/>
      <point x="50" y="607" type="line"/>
      <point x="50" y="598" type="line"/>
      <point x="50" y="590" type="line"/>
      <point x="50" y="582" type="line"/>
      <point x="50" y="574" type="line"/>
      <point x="50" y="568" type="line"/>
      <point x="50" y="562" type="line"/>
      <point x="50" y="168" type="line"/>
      <point x="50" y="158" type="line"/>
      <point x="50" y="151" type="line"/>
      <point x="50" y="144" type="line"/>
      <point x="50" y="136" type="line"/>
      <point x="50" y="127" type="line"/>
      <point x="51" y="118" type="line"/>
      <point x="51" y="109" type="line"/>
      <point x="52" y="100" type="line"/>
      <point x="54" y="90" type="line"/>
      <point x="55" y="80" type="line"/>
      <point x="57" y="69" type="line"/>
      <point x="60" y="59" type="line"/>
      <point x="63" y="48" type="line"/>
      <point x="66" y="37" type="line"/>
      <point x="71" y="26" type="line"/>
      <point x="76" y="15" type="line"/>
      <point x="82" y="4" type="line"/>
      <point x="89" y="-7" type="line"/>
      <point x="96" y="-18" type="line"/>
      <point x="105" y="-28" type="line"/>
      <point x="115" y="-38" type="line"/>
      <point x="125" y="-47" type="line"/>
      <point x="133" y="-53" type="line" smooth="yes"/>
      <point x="134" y="-54"/>
      <point x="135" y="-55"/>
      <point x="136" y="-56" type="curve" smooth="yes"/>
      <point x="149" y="-64" type="line"/>
      <point x="162" y="-71" type="line"/>
      <point x="175" y="-78" type="line"/>
      <point x="190" y="-83" type="line"/>
      <point x="205" y="-88" type="line"/>
      <point x="221" y="-92" type="line"/>
      <point x="238" y="-96" type="line"/>
      <point x="255" y="-99" type="line"/>
      <point x="274" y="-101" type="line"/>
      <point x="293" y="-102" type="line"/>
    </contour>
    <contour>
      <point x="439" y="232" type="line"/>
      <point x="435" y="235" type="line"/>
      <point x="425" y="240" type="line"/>
      <point x="421" y="243" type="line"/>
      <point x="413" y="250" type="line"/>
      <point x="408" y="256" type="line"/>
      <point x="403" y="261" type="line"/>
      <point x="398" y="267" type="line"/>
      <point x="394" y="273" type="line"/>
      <point x="391" y="280" type="line"/>
      <point x="387" y="286" type="line"/>
      <point x="384" y="293" type="line"/>
      <point x="382" y="299" type="line"/>
      <point x="379" y="306" type="line"/>
      <point x="377" y="313" type="line"/>
      <point x="376" y="319" type="line"/>
      <point x="374" y="325" type="line"/>
      <point x="373" y="331" type="line"/>
      <point x="372" y="337" type="line"/>
      <point x="371" y="342" type="line"/>
      <point x="371" y="347" type="line"/>
      <point x="370" y="354" type="line"/>
      <point x="370" y="360" type="line"/>
      <point x="370" y="375" type="line"/>
      <point x="371" y="389" type="line"/>
      <point x="373" y="402" type="line"/>
      <point x="375" y="414" type="line"/>
      <point x="377" y="424" type="line"/>
      <point x="380" y="434" type="line"/>
      <point x="383" y="442" type="line"/>
      <point x="386" y="449" type="line"/>
      <point x="389" y="456" type="line"/>
      <point x="392" y="461" type="line"/>
      <point x="396" y="466" type="line"/>
      <point x="399" y="470" type="line"/>
      <point x="403" y="474" type="line"/>
      <point x="403" y="474" type="line"/>
      <point x="410" y="480" type="line"/>
      <point x="414" y="482" type="line"/>
      <point x="418" y="485" type="line"/>
      <point x="422" y="487" type="line"/>
      <point x="427" y="488" type="line"/>
      <point x="432" y="490" type="line"/>
      <point x="437" y="492" type="line"/>
      <point x="442" y="493" type="line"/>
      <point x="448" y="494" type="line"/>
      <point x="450" y="495" type="line"/>
      <point x="450" y="228" type="line"/>
    </contour>
  </outline>
</glyph>
<glyph name="D" format="1">
  <advance width="820"/>
  <unicode hex="0044"/>
  <outline>
    <contour>
      <point x="110" y="-61" type="curve" smooth="yes"/>
      <point x="517" y="-61" type="line"/>
      <point x="524" y="-61" type="line"/>
      <point x="531" y="-61" type="line"/>
      <point x="539" y="-61" type="line"/>
      <point x="548" y="-60" type="line"/>
      <point x="557" y="-60" type="line"/>
      <point x="566" y="-59" type="line"/>
      <point x="576" y="-58" type="line"/>
      <point x="586" y="-57" type="line"/>
      <point x="596" y="-55" type="line"/>
      <point x="606" y="-53" type="line"/>
      <point x="617" y="-50" type="line"/>
      <point x="628" y="-47" type="line"/>
      <point x="639" y="-42" type="line"/>
      <point x="650" y="-38" type="line"/>
      <point x="660" y="-32" type="line"/>
      <point x="671" y="-26" type="line"/>
      <point x="682" y="-19" type="line"/>
      <point x="692" y="-10" type="line" smooth="yes"/>
      <point x="693" y="-10"/>
      <point x="695" y="-8"/>
      <point x="696" y="-7" type="curve" smooth="yes"/>
      <point x="702" y="-1" type="line"/>
      <point x="712" y="9" type="line"/>
      <point x="721" y="20" type="line"/>
      <point x="729" y="32" type="line"/>
      <point x="737" y="45" type="line"/>
      <point x="744" y="59" type="line"/>
      <point x="750" y="73" type="line"/>
      <point x="755" y="89" type="line"/>
      <point x="760" y="105" type="line"/>
      <point x="763" y="122" type="line"/>
      <point x="766" y="140" type="line"/>
      <point x="768" y="158" type="line"/>
      <point x="770" y="178" type="line"/>
      <point x="770" y="198" type="line"/>
      <point x="770" y="209" type="line"/>
      <point x="770" y="589" type="line" smooth="yes"/>
      <point x="770" y="591"/>
      <point x="770" y="593"/>
      <point x="770" y="594" type="curve"/>
      <point x="770" y="599" type="line" smooth="yes"/>
      <point x="770" y="606" type="line"/>
      <point x="770" y="613" type="line"/>
      <point x="770" y="621" type="line"/>
      <point x="770" y="629" type="line"/>
      <point x="769" y="637" type="line"/>
      <point x="769" y="646" type="line"/>
      <point x="768" y="656" type="line"/>
      <point x="767" y="665" type="line"/>
      <point x="765" y="675" type="line"/>
      <point x="763" y="685" type="line"/>
      <point x="761" y="696" type="line"/>
      <point x="758" y="706" type="line"/>
      <point x="755" y="717" type="line"/>
      <point x="751" y="728" type="line"/>
      <point x="746" y="739" type="line"/>
      <point x="740" y="750" type="line"/>
      <point x="734" y="761" type="line"/>
      <point x="726" y="771" type="line"/>
      <point x="718" y="782" type="line"/>
      <point x="709" y="792" type="line"/>
      <point x="698" y="801" type="line"/>
      <point x="687" y="810" type="line" smooth="yes"/>
      <point x="686" y="811"/>
      <point x="685" y="812"/>
      <point x="684" y="813" type="curve" smooth="yes"/>
      <point x="675" y="818" type="line"/>
      <point x="662" y="826" type="line"/>
      <point x="648" y="833" type="line"/>
      <point x="634" y="839" type="line"/>
      <point x="618" y="844" type="line"/>
      <point x="602" y="849" type="line"/>
      <point x="585" y="852" type="line"/>
      <point x="568" y="855" type="line"/>
      <point x="549" y="857" type="line"/>
      <point x="529" y="859" type="line"/>
      <point x="509" y="859" type="line"/>
      <point x="503" y="859" type="line"/>
      <point x="110" y="859" type="line" smooth="yes"/>
      <point x="77" y="859"/>
      <point x="50" y="832"/>
      <point x="50" y="799" type="curve"/>
      <point x="50" y="-1" type="line"/>
      <point x="50" y="-34"/>
      <point x="77" y="-61"/>
    </contour>
    <contour>
      <point x="503" y="739" type="line"/>
      <point x="507" y="739" type="line"/>
      <point x="522" y="739" type="line"/>
      <point x="536" y="738" type="line"/>
      <point x="549" y="737" type="line"/>
      <point x="561" y="735" type="line"/>
      <point x="571" y="733" type="line"/>
      <point x="580" y="730" type="line"/>
      <point x="589" y="728" type="line"/>
      <point x="596" y="725" type="line"/>
      <point x="602" y="722" type="line"/>
      <point x="608" y="719" type="line"/>
      <point x="616" y="714" type="line"/>
      <point x="618" y="712" type="line"/>
      <point x="622" y="709" type="line"/>
      <point x="625" y="706" type="line"/>
      <point x="628" y="702" type="line"/>
      <point x="631" y="698" type="line"/>
      <point x="634" y="694" type="line"/>
      <point x="636" y="689" type="line"/>
      <point x="639" y="685" type="line"/>
      <point x="641" y="680" type="line"/>
      <point x="642" y="674" type="line"/>
      <point x="644" y="669" type="line"/>
      <point x="645" y="663" type="line"/>
      <point x="647" y="657" type="line"/>
      <point x="648" y="651" type="line"/>
      <point x="648" y="645" type="line"/>
      <point x="649" y="638" type="line"/>
      <point x="649" y="632" type="line"/>
      <point x="650" y="625" type="line"/>
      <point x="650" y="619" type="line"/>
      <point x="650" y="612" type="line"/>
      <point x="650" y="606" type="line"/>
      <point x="650" y="599" type="line" smooth="yes"/>
      <point x="650" y="597"/>
      <point x="650" y="595"/>
      <point x="650" y="594" type="curve"/>
      <point x="650" y="589" type="line" smooth="yes"/>
      <point x="650" y="209" type="line"/>
      <point x="650" y="200" type="line"/>
      <point x="650" y="185" type="line"/>
      <point x="649" y="171" type="line"/>
      <point x="648" y="158" type="line"/>
      <point x="646" y="147" type="line"/>
      <point x="644" y="136" type="line"/>
      <point x="641" y="127" type="line"/>
      <point x="639" y="119" type="line"/>
      <point x="636" y="111" type="line"/>
      <point x="633" y="105" type="line"/>
      <point x="630" y="100" type="line"/>
      <point x="627" y="95" type="line"/>
      <point x="624" y="90" type="line"/>
      <point x="620" y="86" type="line"/>
      <point x="614" y="80" type="line"/>
      <point x="613" y="80" type="line"/>
      <point x="609" y="77" type="line"/>
      <point x="605" y="74" type="line"/>
      <point x="601" y="72" type="line"/>
      <point x="596" y="70" type="line"/>
      <point x="591" y="68" type="line"/>
      <point x="586" y="66" type="line"/>
      <point x="580" y="65" type="line"/>
      <point x="575" y="63" type="line"/>
      <point x="569" y="62" type="line"/>
      <point x="563" y="61" type="line"/>
      <point x="556" y="60" type="line"/>
      <point x="550" y="60" type="line"/>
      <point x="543" y="60" type="line"/>
      <point x="537" y="59" type="line"/>
      <point x="530" y="59" type="line"/>
      <point x="523" y="59" type="line"/>
      <point x="517" y="59" type="line"/>
      <point x="170" y="59" type="line"/>
      <point x="170" y="739" type="line"/>
    </contour>
  </outline>
</glyph>
